<svg width="32" height="32" viewBox="0 0 32 32" fill="none" xmlns="http://www.w3.org/2000/svg">
<circle cx="16" cy="16" r="16" fill="white"/>
<path d="M21.9135 17.0834C21.7485 17.0834 21.576 17.0309 21.4109 16.9934C21.0768 16.9198 20.7485 16.822 20.4284 16.7009C20.0805 16.5743 19.6981 16.5809 19.3547 16.7194C19.0113 16.8578 18.7313 17.1184 18.5684 17.4509L18.4035 17.7884C17.673 17.382 17.0017 16.8773 16.4085 16.2884C15.8195 15.6952 15.3148 15.0239 14.9085 14.2934L15.2235 14.0834C15.556 13.9206 15.8165 13.6405 15.955 13.2972C16.0935 12.9538 16.1 12.5713 15.9735 12.2234C15.8544 11.9027 15.7567 11.5745 15.681 11.2409C15.6434 11.0759 15.6135 10.9034 15.591 10.7309C15.4999 10.2026 15.2232 9.7242 14.8107 9.38183C14.3982 9.03945 13.877 8.8556 13.3409 8.8634H11.0909C10.7677 8.86036 10.4476 8.92701 10.1525 9.0588C9.85733 9.19058 9.59403 9.38442 9.38052 9.62711C9.16701 9.8698 9.0083 10.1556 8.91519 10.4652C8.82208 10.7747 8.79676 11.1007 8.84095 11.4209C9.2405 14.5629 10.6755 17.4823 12.9192 19.7179C15.1629 21.9534 18.0875 23.3778 21.231 23.7659H21.5159C22.069 23.7667 22.603 23.5638 23.0159 23.1959C23.2532 22.9837 23.4428 22.7235 23.5721 22.4326C23.7013 22.1417 23.7674 21.8267 23.7659 21.5084V19.2584C23.7568 18.7374 23.5671 18.2358 23.2292 17.8391C22.8914 17.4425 22.4263 17.1754 21.9135 17.0834ZM22.2885 21.5834C22.2883 21.6899 22.2655 21.7951 22.2215 21.8921C22.1776 21.9891 22.1135 22.0756 22.0335 22.1459C21.9499 22.2187 21.8519 22.273 21.746 22.3053C21.64 22.3376 21.5284 22.3472 21.4185 22.3334C18.6096 21.9733 16.0006 20.6883 14.003 18.6811C12.0053 16.674 10.7328 14.0589 10.3859 11.2484C10.374 11.1385 10.3845 11.0274 10.4167 10.9217C10.4489 10.816 10.5023 10.7179 10.5734 10.6334C10.6437 10.5534 10.7302 10.4893 10.8272 10.4453C10.9242 10.4013 11.0295 10.3785 11.1359 10.3784H13.3859C13.5604 10.3745 13.7307 10.4316 13.8676 10.5397C14.0044 10.6478 14.0994 10.8003 14.1359 10.9709C14.1659 11.1759 14.2034 11.3784 14.2484 11.5784C14.3351 11.9738 14.4504 12.3623 14.5934 12.7409L13.5434 13.2284C13.4537 13.2696 13.3729 13.3281 13.3058 13.4006C13.2387 13.4731 13.1866 13.5581 13.1525 13.6508C13.1183 13.7435 13.1028 13.842 13.1068 13.9407C13.1109 14.0394 13.1344 14.1363 13.1759 14.2259C14.2554 16.538 16.1139 18.3965 18.426 19.4759C18.6085 19.5509 18.8134 19.5509 18.9959 19.4759C19.0895 19.4424 19.1754 19.3907 19.2488 19.3238C19.3222 19.2568 19.3816 19.176 19.4235 19.0859L19.8884 18.0359C20.2762 18.1746 20.6719 18.2898 21.0735 18.3809C21.2734 18.4259 21.4759 18.4634 21.6809 18.4934C21.8515 18.53 22.004 18.6249 22.1121 18.7618C22.2203 18.8987 22.2773 19.069 22.2734 19.2434L22.2885 21.5834Z" fill="black"/>
</svg>
