<svg width="599" height="272" viewBox="0 0 599 272" fill="none" xmlns="http://www.w3.org/2000/svg">
<path d="M299.321 272C464.631 272 598.641 257.336 598.641 239.246C598.641 221.157 464.631 206.492 299.321 206.492C134.01 206.492 0 221.157 0 239.246C0 257.336 134.01 272 299.321 272Z" fill="#E9F7EF"/>
<path d="M425.379 175.721V198.384L419.4 210.473L419.211 210.855L403.387 209.808L397.304 209.403L383.184 208.47V181.361L397.304 181.758L403.616 181.936L419.589 182.39L425.379 175.721Z" fill="#F86D70"/>
<path opacity="0.1" d="M425.379 177.058V198.384L423.915 201.337L422.421 204.365L419.4 210.473L419.737 187.81L419.804 183.237L422.677 180.053L423.93 178.663L425.379 177.058Z" fill="black"/>
<path d="M426.187 169.702V177.619L425.379 178.916L423.926 181.231L422.644 183.281L419.804 187.814L419.737 187.81L381.939 185.86V178.054L382.035 177.95L386.546 173.054L388.181 171.281L391.135 168.079L426.187 169.702Z" fill="#F86D70"/>
<path opacity="0.1" d="M419.804 180.005V187.814L381.939 185.86V178.054L382.035 177.95L419.804 180.005Z" fill="black"/>
<path opacity="0.15" d="M426.187 169.702V177.619L419.804 187.814V180.005L426.187 169.702Z" fill="black"/>
<path d="M423.934 173.347L423.93 178.663L423.926 181.231L423.915 201.337L422.421 204.365L422.644 183.281L422.677 180.053L422.729 175.29L386.546 173.053L388.181 171.281L423.934 173.347Z" fill="#3F3D56"/>
<path d="M406.174 173.607L403.638 179.124L403.616 181.936L403.386 209.808L397.303 209.403V178.756L400.547 173.607H406.174Z" fill="#3F3D56"/>
<path d="M397.826 173.978C396.361 174.469 394.785 174.524 393.289 174.138C392.999 174.081 392.726 173.954 392.496 173.767C392.247 173.491 392.077 173.154 392.003 172.79C391.738 172.038 391.592 171.25 391.569 170.453C391.56 170.053 391.643 169.657 391.812 169.295C391.98 168.933 392.229 168.615 392.54 168.365C392.673 168.285 392.797 168.191 392.911 168.086C393.045 167.915 393.143 167.718 393.197 167.507C393.641 166.18 394.498 164.783 395.877 164.568C397.148 164.375 398.305 165.263 399.287 166.099L401.437 167.934C401.675 167.29 402.102 166.734 402.661 166.338C403.221 165.942 403.887 165.726 404.571 165.716C405.256 165.707 405.928 165.906 406.498 166.286C407.068 166.667 407.509 167.211 407.764 167.848C409.066 166.376 410.708 165.245 412.546 164.557C412.739 164.457 412.952 164.401 413.169 164.392C413.386 164.384 413.603 164.424 413.803 164.508C414.034 164.676 414.209 164.911 414.303 165.181C414.89 166.465 415.208 167.856 415.237 169.268C415.388 169.216 415.551 169.216 415.702 169.268C415.852 169.32 415.981 169.42 416.068 169.554C416.233 169.825 416.328 170.135 416.342 170.453C416.4 170.946 416.429 171.442 416.427 171.939C416.483 172.463 416.352 172.989 416.057 173.425C415.619 173.938 414.859 173.99 414.203 174.004C414.529 174.294 414.37 174.878 414.01 175.119C413.626 175.326 413.188 175.411 412.754 175.364C411.082 175.364 409.303 175.301 407.909 174.372C407.36 174.001 406.901 173.514 406.348 173.146C404.999 172.251 403.301 172.21 401.741 172.284C400.288 172.355 399.168 173.525 397.826 173.978Z" fill="#3F3D56"/>
<path d="M397.519 173.611C397.519 173.611 383.562 175.561 381.613 184.013L384.537 183.582L386.591 187.268C386.591 187.268 388.756 179.027 395.139 177.073C401.522 175.119 403.794 174.8 403.794 174.8C403.794 174.8 408.242 175.881 412.231 188.787L414.503 185.64L418.507 186.51C418.507 186.51 415.586 176.423 407.686 173.607L397.519 173.611Z" fill="#3F3D56"/>
<path d="M405.874 184.585V215.198L397.8 231.523V231.527L397.545 232.043L376.167 230.628L367.949 230.082L348.877 228.818V192.201L367.949 192.74L376.479 192.982L398.056 193.591L405.874 184.585Z" fill="#7DCEA0"/>
<path opacity="0.1" d="M405.874 186.391V215.199L403.902 219.185V219.189L401.878 223.275L397.8 231.523L398.256 200.91L398.349 194.735L402.226 190.437V190.433L403.917 188.561L405.874 186.391Z" fill="black"/>
<path d="M406.971 176.453V187.149L405.874 188.899L403.917 192.023L402.182 194.795L398.349 200.917L398.256 200.91L347.198 198.28V187.732L347.324 187.595L353.422 180.982L355.628 178.585L359.62 174.257L406.971 176.453Z" fill="#7DCEA0"/>
<path opacity="0.1" d="M398.349 190.37V200.917L347.198 198.28V187.732L347.324 187.595L398.349 190.37Z" fill="black"/>
<path opacity="0.15" d="M406.971 176.453V187.149L398.349 200.917V190.37L406.971 176.453Z" fill="black"/>
<path d="M403.924 181.375L403.917 188.561V192.023L403.902 219.185V219.189L401.878 223.275L402.182 194.795L402.226 190.437V190.433L402.297 183.998L353.422 180.982L355.628 178.585L403.924 181.375Z" fill="#3F3D56"/>
<path d="M379.933 181.728L376.508 189.181L376.479 192.982L376.167 230.628L367.949 230.082V188.687L372.334 181.728H379.933Z" fill="#3F3D56"/>
<path d="M368.657 182.23C366.678 182.891 364.55 182.966 362.53 182.445C362.137 182.37 361.769 182.199 361.458 181.948C361.122 181.576 360.891 181.121 360.791 180.629C360.434 179.612 360.236 178.545 360.206 177.467C360.232 176.393 360.639 175.271 361.518 174.651C361.694 174.542 361.86 174.418 362.015 174.279C362.192 174.047 362.318 173.78 362.385 173.496C362.982 171.705 364.142 169.814 366.007 169.528C367.723 169.264 369.287 170.464 370.611 171.593L373.513 174.071C373.836 173.203 374.413 172.454 375.169 171.92C375.925 171.387 376.824 171.095 377.748 171.082C378.672 171.07 379.578 171.337 380.348 171.85C381.118 172.363 381.715 173.097 382.061 173.956C383.819 171.963 386.037 170.432 388.522 169.498C389.074 169.29 389.719 169.127 390.224 169.431C390.533 169.659 390.768 169.975 390.898 170.338C391.689 172.073 392.117 173.951 392.159 175.858C392.359 175.789 392.576 175.788 392.777 175.855C392.978 175.922 393.152 176.054 393.271 176.23C393.495 176.598 393.622 177.018 393.641 177.449C393.72 178.113 393.759 178.782 393.76 179.451C393.76 180.157 393.693 180.937 393.233 181.457C392.64 182.148 391.614 182.223 390.705 182.245C391.143 182.635 390.928 183.419 390.442 183.749C389.923 184.029 389.331 184.145 388.745 184.08C386.483 184.058 384.081 183.995 382.202 182.735C381.461 182.241 380.838 181.58 380.093 181.086C378.269 179.875 375.978 179.819 373.865 179.919C371.982 180.034 370.47 181.621 368.657 182.23Z" fill="#3F3D56"/>
<path d="M368.242 181.728C368.242 181.728 349.389 184.366 346.742 195.79L350.69 195.203L353.466 200.185C353.466 200.185 356.391 189.04 365.013 186.417C373.635 183.794 376.705 183.341 376.705 183.341C376.705 183.341 382.695 184.805 388.103 202.236L391.172 197.986L396.595 199.16C396.595 199.16 392.648 185.536 381.979 181.728H368.242Z" fill="#3F3D56"/>
<path d="M436.47 199.792V218.739L431.473 228.844L431.314 229.164L418.084 228.287L412.998 227.949L401.196 227.169V204.506L412.998 204.837L418.277 204.985L431.633 205.364L436.47 199.792Z" fill="#7DCEA0"/>
<path opacity="0.1" d="M436.47 200.906V218.739L435.251 221.206L433.998 223.736V223.74L431.473 228.844L431.755 209.897L431.814 206.074L434.213 203.41L435.262 202.251L436.47 200.906Z" fill="black"/>
<path d="M437.148 194.758V201.378L436.47 202.459L435.258 204.395L434.187 206.111L431.814 209.897H431.755L400.154 208.266V201.738L400.232 201.653L404.005 197.559L405.373 196.08L407.842 193.398L437.148 194.758Z" fill="#7DCEA0"/>
<path opacity="0.1" d="M431.814 203.369V209.897L400.154 208.266V201.738L400.232 201.653L431.814 203.369Z" fill="black"/>
<path opacity="0.15" d="M437.148 194.758V201.378L431.814 209.897V203.369L437.148 194.758Z" fill="black"/>
<path d="M435.262 197.804V202.251L435.258 204.395L435.251 221.206L433.998 223.736L434.187 206.111L434.213 203.41L434.257 199.428L404.006 197.559L405.373 196.08L435.262 197.804Z" fill="#1F7042"/>
<path d="M420.416 198.023L418.296 202.637L418.277 204.985L418.084 228.287L412.999 227.949V202.329L415.712 198.023H420.416Z" fill="#1F7042"/>
<path d="M413.436 198.335C412.211 198.743 410.895 198.789 409.644 198.469C409.401 198.42 409.173 198.313 408.98 198.157C408.774 197.927 408.632 197.646 408.569 197.343C408.345 196.714 408.22 196.053 408.198 195.385C408.191 195.052 408.261 194.721 408.401 194.419C408.542 194.117 408.75 193.852 409.01 193.643C409.12 193.576 409.224 193.497 409.318 193.409C409.43 193.267 409.511 193.102 409.555 192.926C409.926 191.811 410.645 190.649 411.798 190.47C412.861 190.307 413.829 191.05 414.648 191.748L416.446 193.283C416.646 192.745 417.003 192.28 417.471 191.95C417.939 191.62 418.496 191.439 419.068 191.432C419.64 191.425 420.201 191.591 420.678 191.91C421.154 192.228 421.523 192.683 421.736 193.216C422.826 191.987 424.199 191.043 425.735 190.466C425.896 190.383 426.074 190.335 426.255 190.328C426.437 190.321 426.617 190.354 426.784 190.426C426.977 190.566 427.123 190.761 427.203 190.987C427.694 192.06 427.959 193.224 427.982 194.405C428.107 194.361 428.244 194.36 428.369 194.403C428.495 194.446 428.603 194.531 428.675 194.642C428.812 194.867 428.893 195.122 428.908 195.385C428.956 195.797 428.979 196.212 428.979 196.626C429.021 197.066 428.905 197.505 428.653 197.867C428.282 198.298 427.652 198.343 427.088 198.354C427.144 198.424 427.185 198.504 427.207 198.591C427.229 198.678 427.233 198.768 427.218 198.856C427.203 198.944 427.17 199.028 427.12 199.102C427.07 199.177 427.005 199.239 426.929 199.286C426.607 199.459 426.24 199.53 425.876 199.491C424.479 199.491 422.989 199.439 421.825 198.658C421.365 198.354 420.979 197.945 420.52 197.637C419.408 196.894 417.973 196.853 416.668 196.916C415.493 196.976 414.559 197.956 413.436 198.335Z" fill="#1F7042"/>
<path d="M413.18 198.023C413.18 198.023 401.511 199.654 399.884 206.728L402.326 206.356L404.043 209.44C404.043 209.44 405.852 202.548 411.189 200.917C416.527 199.286 418.425 199.015 418.425 199.015C418.425 199.015 422.132 199.922 425.468 210.707L427.37 208.08L430.706 208.823C430.706 208.823 428.263 200.393 421.661 198.049L413.18 198.023Z" fill="#1F7042"/>
<path d="M389.701 61.6461C389.286 59.157 381.583 53.7699 381.583 53.7699C381.583 53.7699 378.184 51.9123 376.393 49.7612C375.241 48.3941 374.881 48.4089 374.774 48.5947C374.698 48.5462 374.611 48.5168 374.521 48.5092C374.451 48.4572 374.381 48.4089 374.314 48.3532C374.326 48.249 374.305 48.1437 374.253 48.0524C374.202 47.961 374.123 47.8881 374.028 47.8442C373.937 47.7873 373.849 47.7253 373.765 47.6585C373.18 46.6628 372.972 45.2436 372.902 44.0101C372.816 42.4498 371.048 42.8436 370.488 43.0145C370.081 42.238 369.68 41.4244 369.306 40.6145C369.464 40.3506 369.593 40.0703 369.691 39.7785C370.766 37.4008 370.529 34.6776 370.996 32.1661C371.334 30.3457 372.03 28.4509 371.893 26.6788C371.893 26.6342 371.893 26.5896 371.893 26.5487C371.895 26.5573 371.895 26.5662 371.893 26.5748C371.855 26.1321 371.755 25.697 371.597 25.2819C371.289 24.4831 370.748 23.7958 370.485 22.9673C370.095 21.771 370.344 20.4484 370.021 19.2298C369.617 17.6917 368.338 16.4992 366.893 15.8193C365.447 15.1394 363.846 14.9053 362.263 14.7047C358.304 14.1995 354.108 13.8985 350.494 15.5927C350.159 15.7969 349.773 15.9012 349.382 15.8936C349.024 15.794 348.685 15.6345 348.381 15.4218C347.41 14.9314 346.19 15.2434 345.326 15.901C344.463 16.5586 343.873 17.4986 343.295 18.4125C342.717 19.3264 342.098 20.2701 341.201 20.8682C340.144 21.5853 338.75 21.8267 337.928 22.7964C337.552 23.2554 337.316 23.8122 337.245 24.4014C337.247 24.3928 337.247 24.3839 337.245 24.3754C337.245 24.446 337.245 24.5165 337.245 24.5871C337.245 24.6577 337.245 24.7023 337.245 24.758C337.245 24.8138 337.245 24.8509 337.245 24.8992C337.236 25.0563 337.236 25.2139 337.245 25.371C337.361 26.2776 337.596 27.1648 337.946 28.0088C338.113 28.6361 338.443 29.2077 338.902 29.6658C340.17 30.7209 342.172 29.7252 343.721 30.3122C343.848 30.3635 343.972 30.4218 344.092 30.4869L344.036 30.6652C343.491 32.5546 343.393 34.5455 343.751 36.4795C344.109 38.4134 344.912 40.2369 346.097 41.8046C347.283 43.3723 348.817 44.641 350.577 45.5096C352.338 46.3782 354.277 46.8227 356.239 46.8077C356.499 46.8077 356.758 46.8077 357.018 46.7779C357.055 46.9154 357.096 47.0529 357.129 47.1903C357.52 48.7329 357.646 50.3312 357.5 51.9161L357.422 51.2287C357.252 51.1453 357.076 51.0757 356.895 51.0207C356.388 50.8503 355.855 50.7686 355.32 50.7792C353.596 50.7532 350.998 51.4628 348.229 54.8882C348.229 54.8882 344.693 56.8944 343.651 57.3774C343.566 57.4313 343.499 57.5088 343.458 57.6003C343.458 57.6003 338.78 64.8932 338.295 67.6424L338.228 68.014L330.295 67.6424C330.24 65.6634 329.786 63.716 328.961 61.9173C328.822 61.533 328.571 61.1992 328.242 60.9588C327.711 60.6356 327.022 60.8102 326.436 61.0294C323.8 62.0094 321.442 63.6202 319.568 65.7217C319.195 64.8136 318.559 64.0388 317.741 63.4977C316.924 62.9567 315.963 62.6744 314.983 62.6877C314.004 62.7009 313.051 63.0089 312.248 63.5718C311.445 64.1347 310.83 64.9265 310.482 65.8443L307.394 63.2437C305.989 62.0511 304.329 60.7805 302.501 61.0591C300.522 61.3638 299.287 63.3588 298.65 65.2499C298.575 65.5522 298.436 65.8348 298.242 66.0784C298.205 66.1125 298.167 66.1448 298.127 66.1749L295.695 66.0635L291.455 70.6332L289.108 73.1632L282.629 80.1478L282.492 80.2927V87.2698C282.303 87.7757 282.147 88.2932 282.025 88.819L282.492 88.7484V91.4457L284.278 91.5385V123.701L304.551 125.035L313.288 125.599L328.727 126.614C328.727 128.074 329.335 130.124 330.629 130.931C330.953 131.139 331.241 131.399 331.481 131.7C331.415 131.83 331.348 131.963 331.285 132.097C330.666 133.379 330.117 134.809 330.214 135.697C330.342 136.822 330.08 137.957 329.472 138.911C329.472 138.911 324.802 153.679 324.905 157.922C325.009 162.164 323.241 171.493 323.241 171.493C323.241 171.493 321.313 177.504 322.459 179.213C323.604 180.922 324.905 188.386 324.905 188.386C324.905 188.386 325.791 190.095 325.736 191.548C325.68 193 326.57 195.634 326.57 195.634L329.483 206.36C329.483 206.36 329.172 209.21 330.265 211.231C331.359 213.252 331.252 212.628 330.733 216.153C330.214 219.679 331.355 222.941 333.231 223.978C333.972 224.379 333.995 224.992 333.768 225.59H333.75C333.272 225.4 332.875 226.407 332.638 227.221C332.493 227.37 332.397 227.455 332.397 227.455L332.56 227.496C332.456 227.886 332.397 228.179 332.397 228.179C332.397 228.179 327.508 232.326 327.207 233.827C326.907 235.327 323.46 236.108 323.46 236.108C323.46 236.108 318.27 237.557 316.902 238.285C316.51 238.467 316.171 238.747 315.92 239.1C315.669 239.452 315.513 239.864 315.468 240.295C315.406 240.977 315.469 241.664 315.653 242.323C316.176 244.448 323.46 244.656 326.944 244.088C330.429 243.519 337.664 241.443 337.664 241.443C337.664 241.443 345.26 240.7 347.499 239.786C349.738 238.872 347.966 236.472 347.966 236.472C347.966 236.472 347.966 236.39 347.966 236.245C348.021 235.379 348.177 232.236 347.639 231.393C347.232 230.754 347.247 229.164 347.302 228.15C348.822 225.363 345.556 217.004 345.556 217.004C345.556 217.004 346.183 208.831 345.764 207.627C345.345 206.423 343.58 196.281 343.58 196.281C343.58 196.281 342.487 191.667 342.902 190.89C343.317 190.114 342.643 187.885 342.643 187.885C342.643 187.885 340.874 185.399 341.03 184.623C341.186 183.846 340.511 182.445 340.511 182.445C340.511 182.445 345.819 174.361 345.349 172.86C344.878 171.359 345.556 168.922 345.556 168.922L347.039 166.407C348.025 164.728 349.219 162.71 349.634 162.083C350.145 161.284 351.376 157.884 352.062 155.923C352.351 155.091 352.547 154.518 352.547 154.518C352.547 154.518 353.381 169.751 354.108 171.307C354.834 172.864 355.932 185.139 355.932 185.139C356.334 186.233 356.51 187.397 356.451 188.561C356.347 190.478 358.115 198.818 358.115 198.818C358.115 198.818 358.897 204.725 358.374 206.278C357.852 207.831 358.271 219.282 358.271 219.282C358.271 219.282 355.409 221.511 354.682 223.216C353.956 224.921 354.786 229.591 354.786 229.591L355.12 229.751C354.85 230.399 354.651 231.074 354.527 231.765C354.423 232.749 352.859 237.207 353.018 237.828C353.177 238.448 352.34 240.365 352.236 241.35C352.132 242.334 350.831 243.787 350.727 244.322C350.563 244.789 350.371 245.245 350.153 245.689C349.871 246.372 349.645 247.076 349.478 247.796C348.959 249.969 355.15 250.333 355.15 250.333C364.305 252.042 365.973 245.05 365.973 245.05C365.973 245.05 367.115 238.831 367.534 238.363C367.585 238.273 367.617 238.175 367.629 238.073C367.641 237.971 367.633 237.867 367.604 237.768C367.364 236.713 366.916 235.716 366.285 234.837C365.992 234.495 365.97 233.604 366.022 232.809C366.286 232.785 366.548 232.737 366.804 232.664C370.511 231.575 368.991 225.304 368.991 225.304C368.991 225.304 371.486 221.161 371.486 219.553C371.486 217.944 372.371 213.025 372.371 213.025C375.545 207.222 374.295 193.13 374.818 191.99C375.341 190.849 373.724 186.603 372.423 184.686C371.122 182.769 371.645 177.586 372.423 176.085C373.202 174.584 371.645 169.398 371.645 169.398C371.645 169.398 373.154 159.344 373.102 157.791C373.05 156.239 374.399 151.624 374.399 151.624C374.399 151.624 375.752 149.243 375.441 148.518C375.129 147.794 376.482 145.918 376.119 145.097C375.756 144.276 376.43 141.731 377.105 140.226C377.454 139.457 377.884 137.336 378.217 135.452L378.328 134.832C379.844 135.809 381.223 136.537 381.739 136.34C382.665 135.968 381.19 131.139 380.174 128.122C380.349 127.992 380.419 127.892 380.349 127.843C379.726 127.431 380.419 125.562 380.419 125.562C384.096 123.333 382.847 121.695 381.668 120.732C380.489 119.77 381.253 117.017 380.905 115.903C380.556 114.788 381.32 109.754 381.946 106.095C382.075 105.298 382.067 104.485 381.924 103.691C382.595 102.658 383.284 101.573 383.889 100.566C385.968 97.115 390.409 80.6716 390.409 80.6716L390.379 80.5862C390.813 79.7131 391.121 79.0035 391.31 78.5317C392.615 74.9094 390.116 64.1316 389.701 61.6461ZM357.366 52.1798L357.463 52.1315C357.463 52.1613 357.463 52.1873 357.463 52.2133L357.366 52.1798ZM337.182 228.544C336.956 228.546 336.731 228.502 336.523 228.413L337.182 228.544Z" fill="url(#paint0_linear)"/>
<path d="M296.837 108.989C299.884 110.148 306.979 110.278 310.13 110.274C311.086 110.274 311.679 110.274 311.679 110.274L313.699 106.154L311.679 102.718C311.679 102.718 309.826 102.209 307.364 101.763C303.732 101.105 298.761 100.592 296.392 102.067C292.418 104.527 292.863 107.477 296.837 108.989Z" fill="#FEC2BE"/>
<path opacity="0.1" d="M310.13 110.274C311.086 110.274 311.679 110.274 311.679 110.274L313.7 106.154L311.679 102.717C311.679 102.717 309.826 102.208 307.365 101.763C309.363 103.226 314.167 106.418 310.13 110.274Z" fill="black"/>
<path d="M343.588 59.6622L342.694 58.6331C342.694 58.6331 338.101 65.9148 337.623 68.6641C337.145 71.4133 336.511 74.5749 336.511 74.5749C336.511 74.5749 335.366 78.1415 334.624 79.7242C333.883 81.3068 333.186 82.8152 333.119 83.5025C333.053 84.1898 333.394 85.7019 331.952 86.6604C330.51 87.6189 330.169 90.2344 330.169 90.2344C330.169 90.2344 324.979 95.3168 322.218 95.4543C319.456 95.5917 311.594 96.9664 311.868 98.341C312.142 99.7156 308.576 100.54 307.138 100.882C305.7 101.224 316.405 105.34 310.156 110.638C310.156 110.638 314.129 111.463 314.541 112.425C314.952 113.387 319.134 111.875 319.134 111.875C319.134 111.875 320.027 109.747 323.111 109.609C326.195 109.472 327.77 108.097 327.77 107.889C327.77 107.681 330.855 105.968 332.571 105.485C334.287 105.002 336.545 104.798 336.615 104.319C336.685 103.839 346.894 59.6622 346.894 59.6622H343.588Z" fill="#4C4981"/>
<path opacity="0.05" d="M343.588 59.6622L342.694 58.6331C342.694 58.6331 338.101 65.9148 337.623 68.6641C337.145 71.4133 336.511 74.5749 336.511 74.5749C336.511 74.5749 335.366 78.1415 334.624 79.7242C333.883 81.3068 333.186 82.8152 333.119 83.5025C333.053 84.1898 333.394 85.7019 331.952 86.6604C330.51 87.6189 330.169 90.2344 330.169 90.2344C330.169 90.2344 324.979 95.3168 322.218 95.4543C319.456 95.5917 311.594 96.9664 311.868 98.341C312.142 99.7156 308.576 100.54 307.138 100.882C305.7 101.224 316.405 105.34 310.156 110.638C310.156 110.638 314.129 111.463 314.541 112.425C314.952 113.387 319.134 111.875 319.134 111.875C319.134 111.875 320.027 109.747 323.111 109.609C326.195 109.472 327.77 108.097 327.77 107.889C327.77 107.681 330.855 105.968 332.571 105.485C334.287 105.002 336.545 104.798 336.615 104.319C336.685 103.839 346.894 59.6622 346.894 59.6622H343.588Z" fill="black"/>
<path d="M354.271 250.307C363.319 252.009 364.965 245.054 364.965 245.054C364.965 245.054 366.077 238.872 366.507 238.407C366.558 238.319 366.59 238.221 366.602 238.119C366.615 238.018 366.606 237.915 366.578 237.817C366.341 236.768 365.897 235.778 365.273 234.904C364.706 234.231 365.169 231.449 365.169 231.449L354.682 228.77C354.682 228.77 353.756 230.884 353.656 231.861C353.556 232.838 352.01 237.274 352.173 237.891C352.336 238.508 351.506 240.417 351.402 241.394C351.298 242.371 350.016 243.817 349.919 244.333C349.757 244.796 349.567 245.248 349.352 245.689C349.072 246.368 348.849 247.069 348.685 247.784C348.147 249.947 354.271 250.307 354.271 250.307Z" fill="#CA8496"/>
<path opacity="0.1" d="M354.271 250.307C363.319 252.009 364.965 245.054 364.965 245.054C364.965 245.054 366.077 238.872 366.507 238.407C366.558 238.319 366.59 238.221 366.602 238.119C366.614 238.018 366.606 237.915 366.577 237.817L364.398 244.073C364.398 244.073 362.6 247.836 355.917 247.268C352.113 246.948 350.241 246.239 349.333 245.689C349.053 246.368 348.83 247.069 348.666 247.784C348.147 249.947 354.271 250.307 354.271 250.307Z" fill="black"/>
<path opacity="0.1" d="M361.314 240.518C361.314 240.518 359.053 240.57 358.897 238.716L361.314 240.518Z" fill="black"/>
<path d="M321.977 179.614C323.089 181.316 324.394 188.735 324.394 188.735C324.394 188.735 325.269 190.437 325.217 191.878C325.165 193.32 326.04 195.965 326.04 195.965L328.92 206.631C328.92 206.631 328.609 209.462 329.691 211.461C330.773 213.46 330.666 212.854 330.151 216.358C329.635 219.861 330.77 223.108 332.619 224.137C334.469 225.166 331.797 227.589 331.797 227.589C331.797 227.589 343.621 230.784 346.09 228.826C348.559 226.868 344.804 217.182 344.804 217.182C344.804 217.182 345.419 209.039 345.011 207.854C344.604 206.668 342.85 196.559 342.85 196.559C342.85 196.559 341.772 191.975 342.183 191.202C342.595 190.429 341.924 188.211 341.924 188.211C341.924 188.211 340.178 185.741 340.33 184.968C340.482 184.195 339.814 182.813 339.814 182.813C339.814 182.813 345.056 174.774 344.596 173.28C344.137 171.787 344.8 169.364 344.8 169.364C344.8 169.364 345.464 168.224 346.261 166.864C347.236 165.192 348.414 163.19 348.811 162.565C349.315 161.767 350.531 158.386 351.209 156.439L351.691 155.042C351.691 155.042 352.51 170.189 353.233 171.735C353.956 173.28 355.031 185.481 355.031 185.481C355.429 186.569 355.604 187.726 355.546 188.884C355.442 190.79 357.192 199.086 357.192 199.086C357.192 199.086 357.963 204.959 357.448 206.516C356.933 208.073 357.344 219.449 357.344 219.449C357.344 219.449 354.516 221.678 353.797 223.365C353.078 225.051 353.9 229.703 353.9 229.703C353.9 229.703 362.126 233.823 365.762 232.742C369.399 231.661 367.92 225.426 367.92 225.426C367.92 225.426 370.388 221.303 370.388 219.705C370.388 218.108 371.263 213.215 371.263 213.215C374.399 207.441 373.165 193.428 373.676 192.294C374.188 191.161 372.616 186.933 371.323 185.042C370.029 183.151 370.552 177.983 371.323 176.497C372.094 175.011 370.559 169.81 370.559 169.81C370.559 169.81 372.042 159.812 372.001 158.267C371.96 156.721 373.287 152.137 373.287 152.137C373.287 152.137 374.622 149.767 374.314 149.046C374.006 148.325 375.341 146.468 374.981 145.643C374.622 144.818 375.289 142.299 375.96 140.813C376.301 140.044 376.727 137.937 377.072 136.065C377.387 134.285 377.621 132.721 377.621 132.721L369.136 125.871L347.955 120.298L339.985 117.719L332.223 129.98C332.223 129.98 331.422 131.261 330.71 132.74C330.102 134.014 329.558 135.437 329.654 136.318C329.783 137.434 329.53 138.56 328.935 139.513C328.935 139.513 324.29 154.206 324.394 158.438C324.498 162.669 322.763 171.939 322.763 171.939C322.763 171.939 320.846 177.913 321.977 179.614Z" fill="#4C4981"/>
<path d="M344.118 77.9298V110.085L335.637 127.234L335.366 127.776L312.914 126.29L304.284 125.718L284.252 124.392V85.9286L304.284 86.497L313.244 86.7496L335.904 87.3924L344.118 77.9298Z" fill="#7DCEA0"/>
<path d="M310.345 101.102H305.228V106.234H300.623V111.366H305.228V115.985H310.345V111.366H315.461V106.234H310.345V101.102Z" fill="#C84F4F"/>
<path opacity="0.1" d="M344.118 79.8282V110.085L342.046 114.272V114.275L339.918 118.567V118.57L335.636 127.234L336.115 95.0791L336.211 88.5924L340.285 84.0747L342.06 82.1057L344.118 79.8282Z" fill="black"/>
<path d="M345.267 69.3922V80.6232L344.118 82.4623L342.061 85.7465L340.237 88.6555L336.211 95.0827L336.115 95.079L282.488 92.3149V81.2363L282.622 81.0914L289.023 74.144L291.344 71.6325L295.532 67.0851L345.267 69.3922Z" fill="#7DCEA0"/>
<path opacity="0.1" d="M336.211 84.0078V95.0828L282.488 92.315V81.2363L282.622 81.0914L336.211 84.0078Z" fill="#27AE60"/>
<path opacity="0.15" d="M345.267 69.3922V80.6233L336.211 95.0828V84.0078L345.267 69.3922Z" fill="#27AE60"/>
<path d="M342.068 74.5601L342.06 82.1056V85.7465L342.046 114.272V114.275L339.918 118.566L340.237 88.6555L340.285 84.0747L340.359 77.3167L289.023 74.144L291.343 71.6325L342.068 74.5601Z" fill="#3F3D56"/>
<path d="M353.296 60.1749C353.622 60.0412 375.986 50.7866 372.905 48.9439C371.078 47.8516 368.828 43.2262 367.286 39.6039C366.211 37.0702 365.48 35.0342 365.48 35.0342C365.48 35.0342 347.532 31.8392 353.956 42.8659C354.969 44.557 355.732 46.3866 356.221 48.2975C358.052 55.8059 353.444 60.0375 353.296 60.1749Z" fill="#FEC2BE"/>
<path opacity="0.1" d="M353.956 42.8659C354.969 44.557 355.732 46.3866 356.221 48.2975C358.498 48.1371 360.688 47.3569 362.556 46.041C364.423 44.7251 365.897 42.9234 366.818 40.8299C366.997 40.4302 367.152 40.0209 367.286 39.6039C366.211 37.0702 365.48 35.0342 365.48 35.0342C365.48 35.0342 347.532 31.8392 353.956 42.8659Z" fill="black"/>
<path d="M342.798 35.3426C342.798 38.2266 343.788 41.0228 345.601 43.2625C347.413 45.5022 349.939 47.0492 352.755 47.6441C355.57 48.2389 358.505 47.8455 361.065 46.5298C363.626 45.2141 365.657 43.0561 366.819 40.4176C367.526 38.8198 367.89 37.0906 367.886 35.3426C367.886 33.6916 367.562 32.0568 366.931 30.5314C366.301 29.0061 365.377 27.6202 364.212 26.4527C363.047 25.2853 361.665 24.3592 360.143 23.7274C358.621 23.0956 356.99 22.7704 355.342 22.7704C353.695 22.7704 352.064 23.0956 350.542 23.7274C349.02 24.3592 347.637 25.2853 346.472 26.4527C345.308 27.6202 344.384 29.0061 343.753 30.5314C343.123 32.0568 342.798 33.6916 342.798 35.3426Z" fill="#FEC2BE"/>
<path opacity="0.1" d="M330.695 132.755C332.011 133.951 332.515 136.228 332.515 136.228C332.515 136.228 338.702 140.46 338.276 137.774C337.85 135.088 341.464 124.277 341.464 124.277L341.052 139.011C341.052 139.011 360.791 138.086 362.233 136.641C363.675 135.196 372.104 132.417 372.104 132.417C372.104 132.417 374.699 134.493 377.057 136.069C377.372 134.289 377.605 132.725 377.605 132.725L369.12 125.874L347.94 120.301L339.97 117.723L332.208 129.983C332.208 129.983 331.407 131.276 330.695 132.755Z" fill="black"/>
<path d="M330.05 131.592C331.693 132.625 332.312 135.407 332.312 135.407C332.312 135.407 338.48 139.632 338.068 136.953C337.657 134.274 341.256 123.452 341.256 123.452L340.845 138.186C340.845 138.186 360.587 137.261 362.026 135.816C363.464 134.371 371.897 131.592 371.897 131.592C371.897 131.592 379.196 137.466 380.534 136.953C381.872 136.44 378.169 126.439 378.169 126.439L374.366 67.9061C374.366 67.9061 375.393 50.4893 373.851 49.8726C373.613 49.7761 373.393 49.6391 373.202 49.4677C372.186 48.55 371.882 46.6924 371.793 45.132C371.693 43.2744 369.224 44.2032 369.224 44.2032L370.663 46.0608L357.922 53.8219L357.811 53.8924C357.315 53.6302 356.803 53.397 356.28 53.194C355.168 52.7593 353.652 52.3506 352.67 52.7593C352.121 53.0376 351.655 53.4568 351.32 53.9742C350.593 55.0698 350.01 56.2548 349.586 57.4999L344.959 65.3315C344.959 65.3315 342.594 75.734 342.594 76.1501C342.594 76.5662 341.875 86.0437 341.052 87.0728C340.23 88.1019 339.407 93.2586 339.714 94.8041C340.022 96.3496 339.199 102.119 339.199 102.119C335.807 104.902 334.058 114.379 334.058 114.379C334.058 114.379 328.712 124.994 328.301 126.231C327.889 127.468 328.405 130.563 330.05 131.592Z" fill="white"/>
<path opacity="0.1" d="M357.922 54.2343C359.172 56.0919 362.782 58.6925 362.782 58.6925L373.202 49.8726C372.186 48.955 371.882 47.0974 371.793 45.537C371.693 43.6794 369.224 44.6082 369.224 44.6082L369.521 44.9797C369.664 45.1644 369.767 45.3772 369.823 45.6044C369.878 45.8316 369.885 46.068 369.843 46.2981C369.801 46.5282 369.711 46.7468 369.579 46.9396C369.447 47.1324 369.275 47.295 369.076 47.4169L357.922 54.2343Z" fill="black"/>
<path d="M357.922 53.8219C359.172 55.6795 362.782 58.2802 362.782 58.2802L373.202 49.4603C372.186 48.5427 371.882 46.6851 371.793 45.1247C371.693 43.2671 369.224 44.1959 369.224 44.1959L369.521 44.5674C369.664 44.752 369.767 44.9649 369.823 45.1921C369.878 45.4193 369.885 45.6557 369.843 45.8858C369.801 46.1159 369.711 46.3345 369.579 46.5273C369.447 46.7201 369.275 46.8827 369.076 47.0046L357.922 53.8219Z" fill="white"/>
<path opacity="0.1" d="M353.104 55.2114C354.449 56.8275 356.358 58.6554 356.269 57.7378C356.18 56.8201 357.407 54.7991 358.189 53.8926C356.968 53.5033 355.652 53.5387 354.453 53.9929C353.904 54.2738 353.439 54.694 353.104 55.2114Z" fill="black"/>
<path d="M352.896 54.5946C354.245 56.207 356.15 58.0386 356.061 57.1209C355.972 56.2033 357.073 54.7209 357.855 53.8144C356.743 53.3797 355.231 52.9711 354.245 53.376C353.695 53.6546 353.229 54.0753 352.896 54.5946Z" fill="white"/>
<path d="M356.269 63.1656C356.723 63.1656 357.092 62.7963 357.092 62.3408C357.092 61.8853 356.723 61.5161 356.269 61.5161C355.814 61.5161 355.446 61.8853 355.446 62.3408C355.446 62.7963 355.814 63.1656 356.269 63.1656Z" fill="#FF718D"/>
<path d="M350.03 85.4233C350.485 85.4233 350.853 85.0541 350.853 84.5986C350.853 84.1431 350.485 83.7738 350.03 83.7738C349.576 83.7738 349.208 84.1431 349.208 84.5986C349.208 85.0541 349.576 85.4233 350.03 85.4233Z" fill="#FF718D"/>
<path d="M342.969 107.96C343.423 107.96 343.792 107.59 343.792 107.135C343.792 106.679 343.423 106.31 342.969 106.31C342.514 106.31 342.146 106.679 342.146 107.135C342.146 107.59 342.514 107.96 342.969 107.96Z" fill="#FF718D"/>
<path d="M342.765 132.484C343.219 132.484 343.588 132.114 343.588 131.659C343.588 131.203 343.219 130.834 342.765 130.834C342.31 130.834 341.942 131.203 341.942 131.659C341.942 132.114 342.31 132.484 342.765 132.484Z" fill="#FF718D"/>
<path d="M352.636 73.6759C353.091 73.6759 353.459 73.3066 353.459 72.8511C353.459 72.3956 353.091 72.0263 352.636 72.0263C352.182 72.0263 351.813 72.3956 351.813 72.8511C351.813 73.3066 352.182 73.6759 352.636 73.6759Z" fill="#FF718D"/>
<path d="M347.083 96.5541C347.538 96.5541 347.906 96.1848 347.906 95.7293C347.906 95.2738 347.538 94.9045 347.083 94.9045C346.629 94.9045 346.26 95.2738 346.26 95.7293C346.26 96.1848 346.629 96.5541 347.083 96.5541Z" fill="#FF718D"/>
<path d="M341.668 119.02C342.122 119.02 342.491 118.65 342.491 118.195C342.491 117.739 342.122 117.37 341.668 117.37C341.213 117.37 340.845 117.739 340.845 118.195C340.845 118.65 341.213 119.02 341.668 119.02Z" fill="#FF718D"/>
<path d="M342.902 135.233C343.356 135.233 343.725 134.864 343.725 134.408C343.725 133.953 343.356 133.583 342.902 133.583C342.448 133.583 342.079 133.953 342.079 134.408C342.079 134.864 342.448 135.233 342.902 135.233Z" fill="#FF718D"/>
<path opacity="0.1" d="M373.198 49.9767C373.198 49.9767 373.061 48.7395 374.844 50.8683C376.627 52.9971 379.985 54.8547 379.985 54.8547C379.985 54.8547 387.595 60.212 388.003 62.6864C388.411 65.1607 390.88 75.8753 389.579 79.4493C388.278 83.0233 378.336 100.128 378.336 100.128C378.336 100.128 380.931 103.219 380.326 106.86C379.722 110.501 378.955 115.516 379.296 116.616C379.637 117.716 378.884 120.461 380.037 121.423C381.19 122.386 382.436 124.024 378.803 126.235C378.803 126.235 378.117 128.092 378.732 128.501C379.348 128.91 369.617 133.175 365.777 130.905C361.937 128.635 355.027 110.501 354.879 106.448C354.731 102.394 357.003 88.9862 358.237 85.8357C359.472 82.6852 363.175 70.3805 364.75 67.6313C366.326 64.882 373.198 49.9767 373.198 49.9767Z" fill="black"/>
<path d="M373.609 49.9767C373.609 49.9767 373.472 48.7395 375.255 50.8683C377.038 52.9971 380.397 54.8547 380.397 54.8547C380.397 54.8547 388.003 60.212 388.418 62.6864C388.833 65.1607 391.295 75.8753 389.994 79.4493C388.693 83.0233 378.736 100.128 378.736 100.128C378.736 100.128 381.331 103.219 380.727 106.86C380.122 110.501 379.355 115.516 379.696 116.616C380.037 117.716 379.285 120.461 380.437 121.423C381.59 122.386 382.836 124.024 379.203 126.235C379.203 126.235 378.517 128.092 379.133 128.501C379.748 128.91 370.018 133.175 366.177 130.905C362.337 128.635 355.427 110.501 355.279 106.448C355.131 102.394 357.403 88.9862 358.638 85.8357C359.872 82.6852 363.575 70.3805 365.15 67.6313C366.726 64.882 373.609 49.9767 373.609 49.9767Z" fill="#4C4981"/>
<path opacity="0.1" d="M376.352 61.6536C376.352 61.6536 370.459 68.1812 370.662 72.5093C370.662 72.5093 370.581 65.5025 376.352 61.6536Z" fill="black"/>
<path opacity="0.1" d="M368.193 72.3719C368.193 72.5799 364.22 87.4184 364.424 89.2723C364.627 91.1261 363.26 96.6209 363.26 96.6209L361.406 96.1379C361.406 96.1379 362.844 88.5144 363.119 85.6983C363.393 82.8821 368.193 72.3719 368.193 72.3719Z" fill="black"/>
<path opacity="0.1" d="M366.619 114.692C366.756 114.9 376.012 125.41 373.406 126.164C370.8 126.918 366.619 114.692 366.619 114.692Z" fill="black"/>
<path opacity="0.1" d="M374.229 112.013C374.432 112.15 377.935 119.57 378.339 117.586C378.743 115.602 375.326 123.014 374.777 117.515L374.229 112.013Z" fill="black"/>
<path opacity="0.1" d="M356.458 52.3098C356.458 52.3098 352.636 49.9767 347.836 55.9507C347.836 55.9507 344.34 57.9458 343.314 58.425C342.287 58.9043 341.119 71.6845 341.119 71.6845C341.119 71.6845 338.858 77.1793 339.473 80.3409C340.089 83.5026 337.694 94.3583 337.694 94.3583C337.694 94.3583 333.717 113.867 333.854 114.42C333.991 114.974 337.898 108.305 337.828 105.01C337.757 101.714 341.119 91.4048 341.601 90.788C342.083 90.1713 345.375 72.5093 345.375 72.5093C345.375 72.5093 348.047 65.0195 349.76 62.5489C351.472 60.0783 353.6 55.4046 354.49 54.5798C355.13 54.0235 355.845 53.5607 356.614 53.2052L356.458 52.3098Z" fill="black"/>
<path d="M356.495 52.3098C356.495 52.3098 352.21 49.9767 347.409 55.9507C347.409 55.9507 343.914 57.9458 342.887 58.425C341.86 58.9043 340.693 71.6845 340.693 71.6845C340.693 71.6845 338.431 77.1793 339.047 80.3409C339.662 83.5026 337.268 94.3583 337.268 94.3583C337.268 94.3583 333.29 113.867 333.427 114.42C333.564 114.974 337.471 108.305 337.405 105.01C337.338 101.714 340.693 91.4048 341.175 90.788C341.656 90.1713 344.944 72.513 344.944 72.513C344.944 72.513 347.617 65.0232 349.33 62.5526C351.042 60.082 353.17 55.4083 354.059 54.5835C354.949 53.7588 356.595 53.2089 356.595 53.2089L356.495 52.3098Z" fill="#4C4981"/>
<path d="M337.694 95.25C337.694 95.25 329.539 89.8927 325.595 92.5342C321.651 95.1757 315.216 98.9243 321.551 101.64C327.886 104.356 336.664 103.836 336.664 103.836L337.694 95.25Z" fill="#FEC2BE"/>
<path opacity="0.1" d="M343.365 146.947C344.581 149.547 345.589 162.695 346.264 166.86C347.239 165.188 348.418 163.186 348.814 162.562C349.319 161.763 350.534 158.382 351.213 156.435C350.438 154.548 348.299 149.139 348.299 147.147C348.299 144.725 344.392 141.686 344.392 141.686C344.392 141.686 341.923 143.856 343.365 146.947Z" fill="black"/>
<path opacity="0.1" d="M369.584 187.294C369.584 187.294 360.536 183.426 357.863 186.179C355.191 188.932 369.584 187.294 369.584 187.294Z" fill="black"/>
<path opacity="0.1" d="M364.494 188.839C364.494 188.839 373.646 193.992 370.51 194.865C367.374 195.738 364.494 188.839 364.494 188.839Z" fill="black"/>
<path opacity="0.1" d="M337.145 184.355C337.145 184.355 341.052 184.611 339.558 185.384C338.065 186.157 337.145 184.355 337.145 184.355Z" fill="black"/>
<path opacity="0.1" d="M332.26 185.54C332.311 185.797 343.621 189.456 341.412 191.113C339.202 192.77 332.26 185.54 332.26 185.54Z" fill="black"/>
<path opacity="0.1" d="M368.245 217.075C366.551 216.818 357.092 212.438 360.791 215.589C364.49 218.739 368.245 217.075 368.245 217.075Z" fill="black"/>
<path opacity="0.1" d="M363.568 220.526C363.568 220.526 362.745 223.721 359.609 223.309C356.473 222.896 363.568 220.526 363.568 220.526Z" fill="black"/>
<path opacity="0.1" d="M366.192 227.024C365.625 226.868 358.889 223.777 358.737 225.218C358.585 226.66 365.161 229.186 365.677 228.413C365.972 228.006 366.15 227.526 366.192 227.024Z" fill="black"/>
<path opacity="0.1" d="M344.392 223.309C343.569 223.257 335.866 220.786 334.317 223L344.392 223.309Z" fill="black"/>
<path opacity="0.1" d="M337.401 224.75C337.401 224.75 336.063 223.565 334.728 224.186C333.394 224.806 337.401 224.75 337.401 224.75Z" fill="black"/>
<path opacity="0.1" d="M354.467 237.531C354.382 237.968 354.172 238.372 353.862 238.692C353.552 239.012 353.156 239.235 352.721 239.332L354.467 237.531Z" fill="black"/>
<path d="M315.242 242.375C315.757 244.485 322.956 244.693 326.399 244.125C329.843 243.557 336.99 241.513 336.99 241.513C336.99 241.513 344.496 240.792 346.705 239.864C348.915 238.935 347.169 236.565 347.169 236.565C347.169 236.565 347.169 236.487 347.169 236.345C347.221 235.483 347.376 232.359 346.846 231.516C346.227 230.539 346.587 227.343 346.587 227.343C346.587 227.343 335.948 229.405 335.741 228.425C335.533 227.444 333.887 226.054 333.12 225.746C332.352 225.438 331.782 228.321 331.782 228.321C331.782 228.321 326.963 232.444 326.64 233.938C326.318 235.431 322.933 236.204 322.933 236.204C322.933 236.204 317.792 237.649 316.454 238.37C316.066 238.553 315.731 238.833 315.483 239.183C315.234 239.533 315.079 239.942 315.034 240.369C314.984 241.045 315.054 241.724 315.242 242.375Z" fill="#CA8496"/>
<path opacity="0.1" d="M315.242 242.375C315.757 244.485 322.956 244.693 326.399 244.125C329.843 243.557 336.99 241.513 336.99 241.513C336.99 241.513 344.496 240.792 346.705 239.864C348.915 238.935 347.169 236.565 347.169 236.565C347.169 236.565 347.169 236.487 347.169 236.345L336.419 238.73C336.419 238.73 331.125 240.997 327.734 240.997C324.768 240.997 318.133 242.215 315.053 240.369C314.996 241.044 315.06 241.723 315.242 242.375Z" fill="black"/>
<path opacity="0.1" d="M329.806 234.231C329.806 234.231 330.321 237.635 332.378 238.768L329.806 234.231Z" fill="black"/>
<path opacity="0.1" d="M343.288 31.8615C343.481 31.9655 343.685 32.0502 343.896 32.1141C344.863 32.3742 345.805 31.724 346.661 31.2039C347.517 30.6837 348.7 30.2974 349.441 30.9698C350.408 31.8503 349.708 33.7339 350.705 34.581C351.335 35.1197 352.336 34.9525 353.037 35.3797C353.737 35.807 353.948 36.7878 354.126 37.6274C354.304 38.4671 354.656 39.4181 355.476 39.6634C356.295 39.9086 357.051 39.3699 357.855 39.3996C358.022 39.3996 358.226 39.4256 358.33 39.303C358.404 39.1943 358.432 39.0607 358.408 38.9315C358.307 37.933 358.397 36.9245 358.671 35.9593C359.001 35.0119 359.783 34.15 360.758 33.9977C362.204 33.7748 363.416 35.0454 364.265 36.2268C365.157 37.4818 365.969 38.7922 366.696 40.15C366.742 40.2383 366.782 40.3288 366.819 40.4212C367.526 38.8235 367.89 37.0943 367.886 35.3463C367.887 32.3158 366.796 29.3869 364.813 27.0988C362.831 24.8107 360.09 23.3173 357.096 22.8936C354.102 22.4699 351.056 23.1444 348.519 24.7928C345.982 26.4413 344.124 28.9529 343.288 31.8652V31.8615Z" fill="black"/>
<path d="M364.28 36.0188C363.431 34.8262 362.219 33.5593 360.773 33.7897C359.783 33.942 359.016 34.8002 358.686 35.7476C358.412 36.7127 358.324 37.7215 358.426 38.7197C358.447 38.8499 358.416 38.983 358.341 39.0912C358.23 39.2138 358.037 39.1953 357.87 39.1878C357.066 39.1581 356.265 39.6819 355.491 39.4516C354.716 39.2213 354.319 38.2553 354.141 37.4157C353.963 36.576 353.771 35.625 353.052 35.1866C352.332 34.7482 351.35 34.9265 350.72 34.3878C349.723 33.537 350.423 31.6534 349.456 30.7766C348.715 30.1005 347.532 30.4869 346.676 31.007C345.819 31.5271 344.878 32.1773 343.91 31.9209C343.584 31.8318 343.291 31.6423 342.973 31.5197C341.449 30.9401 339.473 31.9246 338.22 30.877C337.765 30.4217 337.438 29.8539 337.272 29.2311C336.928 28.3906 336.695 27.5089 336.578 26.6082C336.467 25.6964 336.717 24.7773 337.275 24.0484C338.091 23.0825 339.47 22.8447 340.511 22.1314C341.397 21.5258 341.994 20.597 342.58 19.6868C343.165 18.7766 343.733 17.8292 344.585 17.1865C345.438 16.5438 346.646 16.228 347.602 16.7147C347.905 16.9233 348.239 17.0813 348.592 17.1828C348.984 17.1906 349.37 17.0862 349.704 16.8818C353.27 15.1989 357.422 15.4961 361.333 15.9976C362.897 16.1983 364.483 16.436 365.911 17.1122C367.338 17.7884 368.598 18.9698 368.998 20.5042C369.317 21.7153 369.072 23.0305 369.458 24.2193C369.717 25.0292 370.251 25.7054 370.57 26.519C371.404 28.6887 370.407 31.0739 369.984 33.3624C369.521 35.8627 369.755 38.5637 368.694 40.9377C368.487 41.4021 368.253 42.2157 367.731 41.9073C367.36 41.6807 366.967 40.3618 366.745 39.9532C366.008 38.5901 365.185 37.2759 364.28 36.0188Z" fill="#9A5E7F"/>
<path opacity="0.1" d="M386.839 76.2877L388.693 81.5781C388.693 81.5781 384.304 97.9249 382.247 101.365C380.189 104.805 377.176 109.197 377.176 109.197C377.176 109.197 372.105 111.738 366.207 110.571C360.309 109.405 343.106 106.31 343.106 106.31C343.106 106.31 341.668 106.585 340.915 105.485C340.163 104.386 336.252 103.836 336.252 103.836C336.252 103.836 331.73 97.2413 337.283 94.4921C337.283 94.4921 337.965 96.0042 340.915 94.9751C343.866 93.946 344.752 95.7999 344.752 95.7999C344.752 95.7999 349.552 96.7621 352.225 96.4166C354.897 96.0711 361.548 95.9373 362.233 95.3875C362.406 95.2334 362.633 95.154 362.864 95.1665C363.095 95.179 363.312 95.2824 363.468 95.4543C363.468 95.4543 365.11 94.8376 365.658 94.2209C366.207 93.6042 366.963 94.9045 366.963 94.9045C366.963 94.9045 367.923 94.3584 367.649 93.671C367.375 92.9837 368.539 90.372 368.539 90.372C368.539 90.372 369.087 88.6555 368.743 87.2809C368.398 85.9063 370.459 80.9651 370.459 80.9651C370.486 80.1314 370.393 79.2982 370.184 78.4908C369.84 77.2536 372.779 74.7756 372.779 74.7756C372.779 74.7756 375.659 60.7619 381.761 65.365C387.862 69.9681 386.839 76.2877 386.839 76.2877Z" fill="black"/>
<path d="M387.262 76.2877L389.115 81.5781C389.115 81.5781 384.726 97.9249 382.669 101.365C380.612 104.805 377.598 109.197 377.598 109.197C377.598 109.197 372.523 111.738 366.629 110.571C360.736 109.405 343.521 106.31 343.521 106.31C343.521 106.31 342.083 106.585 341.33 105.485C340.578 104.386 336.667 103.836 336.667 103.836C336.667 103.836 332.145 97.2413 337.698 94.4921C337.698 94.4921 338.38 96.0042 341.33 94.9751C344.281 93.946 345.167 95.7999 345.167 95.7999C345.167 95.7999 349.986 96.7621 352.64 96.4166C355.294 96.0711 361.963 95.9373 362.648 95.3875C362.821 95.2336 363.047 95.1543 363.277 95.1668C363.508 95.1793 363.724 95.2827 363.879 95.4543C363.879 95.4543 365.525 94.8376 366.073 94.2209C366.622 93.6042 367.378 94.9045 367.378 94.9045C367.378 94.9045 368.335 94.3584 368.06 93.671C367.786 92.9837 368.954 90.372 368.954 90.372C368.954 90.372 369.502 88.6555 369.158 87.2809C368.813 85.9063 370.874 80.9651 370.874 80.9651C370.901 80.1314 370.808 79.2982 370.599 78.4908C370.255 77.2536 373.194 74.7756 373.194 74.7756C373.194 74.7756 376.074 60.7619 382.176 65.365C388.277 69.9681 387.262 76.2877 387.262 76.2877Z" fill="#4C4981"/>
<path opacity="0.1" d="M342.694 98.4116C342.765 98.8908 344.274 100.815 343.725 101.157C343.176 101.499 342.283 101.295 343.106 102.394C343.929 103.494 343.847 105.144 343.314 104.935C342.78 104.727 341.875 102.257 341.875 101.295C341.875 100.332 342.694 98.4116 342.694 98.4116Z" fill="black"/>
<path opacity="0.1" d="M363.056 97.312C363.056 97.312 363.468 102.119 366.826 103.494C370.184 104.869 363.056 97.312 363.056 97.312Z" fill="black"/>
<path opacity="0.1" d="M370.047 95.6624C370.251 95.7292 374.844 98.2035 372.787 99.645C370.729 101.087 370.047 95.6624 370.047 95.6624Z" fill="black"/>
<path opacity="0.1" d="M370.321 92.2257C370.321 92.2257 377.038 93.6004 374.769 94.7669C372.501 95.9335 370.321 92.2257 370.321 92.2257Z" fill="black"/>
<g opacity="0.1">
<path opacity="0.1" d="M358.671 34.5772C359.001 33.6298 359.783 32.7716 360.758 32.6193C362.203 32.3964 363.416 33.6632 364.264 34.8484C365.158 36.1016 365.97 37.4107 366.696 38.7679C366.919 39.1803 367.297 40.4992 367.682 40.7258C368.205 41.0342 368.423 40.2168 368.646 39.7524C369.706 37.3896 369.473 34.6812 369.936 32.1809C370.206 30.7208 370.707 29.2087 370.818 27.7635C370.974 29.558 370.273 31.449 369.936 33.2806C369.473 35.7809 369.706 38.4818 368.646 40.8521C368.438 41.3165 368.205 42.1301 367.682 41.8255C367.311 41.5989 366.919 40.28 366.696 39.8676C365.974 38.5121 365.167 37.2042 364.279 35.9518C363.43 34.7555 362.218 33.4923 360.773 33.7227C359.783 33.875 359.016 34.7332 358.686 35.6806C358.52 36.1798 358.428 36.7004 358.411 37.2261C358.331 36.3346 358.419 35.4359 358.671 34.5772Z" fill="black"/>
<path opacity="0.1" d="M337.256 28.0533C337.424 28.6757 337.751 29.2433 338.205 29.6992C339.458 30.7468 341.434 29.7586 342.958 30.3419C343.263 30.4914 343.576 30.6241 343.895 30.7394C344.863 30.9995 345.804 30.3679 346.661 29.8292C347.517 29.2905 348.699 28.9227 349.441 29.5951C350.408 30.4756 349.708 32.3592 350.705 33.2063C351.335 33.7487 352.336 33.5778 353.036 34.0051C353.737 34.4323 353.948 35.4131 354.126 36.2342C354.304 37.0552 354.656 38.0249 355.476 38.2701C356.295 38.5153 357.051 37.9766 357.855 38.0063C358.022 38.0063 358.226 38.0323 358.326 37.9097C358.353 37.8809 358.373 37.8467 358.385 37.8094C358.385 38.0843 358.385 38.3593 358.411 38.6342C358.431 38.7644 358.4 38.8971 358.326 39.0057C358.215 39.1283 358.022 39.1097 357.855 39.1023C357.051 39.0726 356.25 39.5964 355.476 39.3661C354.701 39.1357 354.304 38.1661 354.126 37.3302C353.948 36.4942 353.756 35.5394 353.036 35.0825C352.317 34.6255 351.335 34.8224 350.705 34.2837C349.708 33.4366 350.408 31.553 349.441 30.6725C348.699 30.0001 347.517 30.3865 346.661 30.9066C345.804 31.4267 344.863 32.0769 343.895 31.8168C343.569 31.7277 343.276 31.5419 342.958 31.4193C341.434 30.836 339.458 31.8242 338.205 30.7766C337.75 30.3198 337.423 29.7509 337.256 29.127C336.912 28.2868 336.679 27.405 336.563 26.5041C336.537 26.1971 336.545 25.8881 336.585 25.5827C336.714 26.4294 336.939 27.2584 337.256 28.0533Z" fill="black"/>
</g>
<path d="M181.847 125.068C182.177 125.068 182.444 124.8 182.444 124.47C182.444 124.14 182.177 123.872 181.847 123.872C181.518 123.872 181.25 124.14 181.25 124.47C181.25 124.8 181.518 125.068 181.847 125.068Z" fill="#444053"/>
<path opacity="0.1" d="M180.654 144.235C180.984 144.235 181.251 143.967 181.251 143.637C181.251 143.306 180.984 143.038 180.654 143.038C180.324 143.038 180.057 143.306 180.057 143.637C180.057 143.967 180.324 144.235 180.654 144.235Z" fill="black"/>
<path d="M194.491 122.538V134.694L191.285 141.177L191.185 141.381L182.696 140.82L179.434 140.601L171.861 140.1V125.562L179.434 125.778L182.822 125.874L191.385 126.116L194.491 122.538Z" fill="#F86D70"/>
<path opacity="0.1" d="M194.491 123.255V134.694L193.709 136.277L192.905 137.9L191.285 141.177L191.467 129.021L191.504 126.569L193.042 124.864V124.86L193.713 124.117L194.491 123.255Z" fill="black"/>
<path d="M194.925 119.313V123.556L194.491 124.251L193.713 125.495L193.023 126.595L191.503 129.025L191.466 129.021L171.197 127.977V123.79L171.245 123.734L173.666 121.108L174.545 120.16L176.127 118.44L194.925 119.313Z" fill="#F86D70"/>
<path opacity="0.1" d="M191.503 124.838V129.025L171.197 127.977V123.79L171.245 123.734L191.503 124.838Z" fill="black"/>
<path opacity="0.15" d="M194.925 119.313V123.556L191.503 129.025V124.838L194.925 119.313Z" fill="black"/>
<path d="M193.716 121.264L193.713 124.117V125.495L193.709 136.277L192.905 137.9L193.023 126.595L193.042 124.864V124.86L193.071 122.308L173.666 121.108L174.545 120.16L193.716 121.264Z" fill="#3F3D56"/>
<path d="M184.194 121.405L182.833 124.366L182.822 125.874L182.696 140.82L179.434 140.601V124.169L181.176 121.405H184.194Z" fill="#3F3D56"/>
<path d="M179.716 121.605C178.93 121.869 178.086 121.899 177.284 121.691C177.128 121.662 176.981 121.594 176.858 121.494C176.724 121.347 176.632 121.166 176.595 120.97C176.451 120.567 176.372 120.143 176.361 119.714C176.356 119.501 176.4 119.289 176.49 119.096C176.58 118.903 176.713 118.733 176.88 118.6C176.95 118.557 177.016 118.507 177.076 118.451C177.151 118.36 177.204 118.253 177.232 118.139C177.469 117.43 177.929 116.679 178.667 116.564C179.404 116.449 179.971 116.935 180.498 117.385L181.651 118.37C181.779 118.025 182.008 117.728 182.307 117.516C182.607 117.304 182.963 117.188 183.33 117.183C183.697 117.178 184.056 117.284 184.362 117.487C184.667 117.69 184.905 117.981 185.042 118.321C185.741 117.533 186.622 116.928 187.608 116.56C187.711 116.506 187.825 116.476 187.942 116.471C188.058 116.465 188.174 116.486 188.282 116.531C188.406 116.626 188.5 116.755 188.553 116.902C188.865 117.591 189.034 118.337 189.05 119.094C189.13 119.064 189.219 119.064 189.3 119.092C189.381 119.121 189.45 119.176 189.494 119.25C189.585 119.395 189.636 119.562 189.643 119.733C189.675 119.997 189.691 120.262 189.691 120.528C189.717 120.81 189.642 121.092 189.48 121.323C189.343 121.441 189.184 121.53 189.012 121.584C188.839 121.638 188.658 121.655 188.479 121.635C188.514 121.68 188.54 121.732 188.555 121.788C188.569 121.843 188.571 121.901 188.561 121.958C188.552 122.014 188.53 122.068 188.498 122.116C188.466 122.163 188.424 122.203 188.375 122.233C188.169 122.345 187.933 122.392 187.7 122.367C186.803 122.367 185.847 122.33 185.105 121.832C184.809 121.635 184.564 121.371 184.268 121.178C183.545 120.695 182.633 120.673 181.795 120.714C181.035 120.732 180.42 121.364 179.716 121.605Z" fill="#3F3D56"/>
<path d="M179.549 121.409C179.549 121.409 172.065 122.453 171.023 126.981L172.587 126.751L173.7 128.727C173.7 128.727 174.86 124.306 178.281 123.259C181.703 122.211 182.922 122.04 182.922 122.04C182.922 122.04 185.302 122.62 187.448 129.541L188.668 127.854L190.814 128.319C190.814 128.319 189.246 122.91 185.013 121.401L179.549 121.409Z" fill="#3F3D56"/>
<path d="M461.613 240.205C473.788 240.205 483.658 238.303 483.658 235.955C483.658 233.608 473.788 231.705 461.613 231.705C449.439 231.705 439.569 233.608 439.569 235.955C439.569 238.303 449.439 240.205 461.613 240.205Z" fill="#1F7042"/>
<path d="M461.247 237.516C462.663 237.516 463.812 236.009 463.812 234.15C463.812 232.291 462.663 230.784 461.247 230.784C459.83 230.784 458.682 232.291 458.682 234.15C458.682 236.009 459.83 237.516 461.247 237.516Z" fill="#3F3D56"/>
<path d="M461.247 233.399C462.663 233.399 463.812 231.892 463.812 230.033C463.812 228.174 462.663 226.667 461.247 226.667C459.83 226.667 458.682 228.174 458.682 230.033C458.682 231.892 459.83 233.399 461.247 233.399Z" fill="#3F3D56"/>
<path d="M461.247 229.287C462.663 229.287 463.812 227.78 463.812 225.921C463.812 224.062 462.663 222.555 461.247 222.555C459.83 222.555 458.682 224.062 458.682 225.921C458.682 227.78 459.83 229.287 461.247 229.287Z" fill="#3F3D56"/>
<path d="M461.247 225.17C462.663 225.17 463.812 223.663 463.812 221.804C463.812 219.945 462.663 218.438 461.247 218.438C459.83 218.438 458.682 219.945 458.682 221.804C458.682 223.663 459.83 225.17 461.247 225.17Z" fill="#3F3D56"/>
<path d="M461.247 221.054C462.663 221.054 463.812 219.547 463.812 217.688C463.812 215.829 462.663 214.322 461.247 214.322C459.83 214.322 458.682 215.829 458.682 217.688C458.682 219.547 459.83 221.054 461.247 221.054Z" fill="#3F3D56"/>
<path d="M461.247 216.937C462.663 216.937 463.812 215.43 463.812 213.571C463.812 211.712 462.663 210.205 461.247 210.205C459.83 210.205 458.682 211.712 458.682 213.571C458.682 215.43 459.83 216.937 461.247 216.937Z" fill="#3F3D56"/>
<path d="M461.247 212.821C462.663 212.821 463.812 211.314 463.812 209.455C463.812 207.596 462.663 206.089 461.247 206.089C459.83 206.089 458.682 207.596 458.682 209.455C458.682 211.314 459.83 212.821 461.247 212.821Z" fill="#3F3D56"/>
<path d="M470.855 181.294C471.205 180.845 471.524 180.373 471.811 179.882L465.065 178.767L472.36 178.819C473.058 177.294 473.439 175.642 473.479 173.964C473.52 172.286 473.218 170.617 472.593 169.06L462.811 174.146L471.834 167.495C470.988 166.031 469.851 164.756 468.493 163.751C467.134 162.746 465.584 162.032 463.939 161.654C462.293 161.276 460.587 161.241 458.928 161.553C457.268 161.864 455.69 162.514 454.293 163.464C452.895 164.413 451.707 165.641 450.804 167.07C449.9 168.499 449.3 170.1 449.04 171.772C448.781 173.444 448.868 175.152 449.296 176.789C449.724 178.425 450.483 179.956 451.527 181.286C450.982 181.983 450.512 182.737 450.126 183.534L458.882 188.092L449.537 184.961C448.882 186.902 448.719 188.976 449.065 190.996C449.411 193.016 450.253 194.918 451.516 196.53C450.091 198.347 449.205 200.53 448.958 202.828C448.712 205.127 449.116 207.448 450.124 209.527C451.132 211.606 452.704 213.359 454.659 214.586C456.614 215.812 458.874 216.463 461.18 216.463C463.487 216.463 465.746 215.812 467.702 214.586C469.657 213.359 471.228 211.606 472.236 209.527C473.244 207.448 473.648 205.127 473.402 202.828C473.156 200.53 472.269 198.347 470.844 196.53C472.545 194.357 473.47 191.675 473.47 188.914C473.47 186.152 472.545 183.47 470.844 181.297L470.855 181.294Z" fill="#27AE60"/>
<path opacity="0.1" d="M448.899 188.91C448.893 191.674 449.819 194.359 451.527 196.53C450.102 198.347 449.215 200.53 448.969 202.828C448.723 205.127 449.127 207.448 450.135 209.527C451.143 211.606 452.714 213.359 454.669 214.586C456.625 215.812 458.884 216.463 461.191 216.463C463.497 216.463 465.757 215.812 467.712 214.586C469.667 213.359 471.239 211.606 472.247 209.527C473.255 207.448 473.659 205.127 473.412 202.828C473.166 200.53 472.28 198.347 470.855 196.53C472.519 194.434 448.899 187.528 448.899 188.91Z" fill="black"/>
<path d="M115.884 223.788C116.859 223.788 117.649 222.75 117.649 221.47C117.649 220.189 116.859 219.151 115.884 219.151C114.91 219.151 114.12 220.189 114.12 221.47C114.12 222.75 114.91 223.788 115.884 223.788Z" fill="#3F3D56"/>
<path d="M115.884 220.957C116.859 220.957 117.649 219.919 117.649 218.639C117.649 217.358 116.859 216.32 115.884 216.32C114.91 216.32 114.12 217.358 114.12 218.639C114.12 219.919 114.91 220.957 115.884 220.957Z" fill="#3F3D56"/>
<path d="M116.137 229.684C124.514 229.684 131.305 228.375 131.305 226.761C131.305 225.146 124.514 223.837 116.137 223.837C107.759 223.837 100.968 225.146 100.968 226.761C100.968 228.375 107.759 229.684 116.137 229.684Z" fill="#1F7042"/>
<path d="M115.885 227.838C116.859 227.838 117.649 226.8 117.649 225.52C117.649 224.239 116.859 223.201 115.885 223.201C114.91 223.201 114.12 224.239 114.12 225.52C114.12 226.8 114.91 227.838 115.885 227.838Z" fill="#3F3D56"/>
<path d="M115.885 225.007C116.859 225.007 117.649 223.969 117.649 222.689C117.649 221.408 116.859 220.371 115.885 220.371C114.91 220.371 114.12 221.408 114.12 222.689C114.12 223.969 114.91 225.007 115.885 225.007Z" fill="#3F3D56"/>
<path d="M115.885 222.176C116.859 222.176 117.649 221.138 117.649 219.858C117.649 218.577 116.859 217.54 115.885 217.54C114.91 217.54 114.12 218.577 114.12 219.858C114.12 221.138 114.91 222.176 115.885 222.176Z" fill="#3F3D56"/>
<path d="M115.885 219.341C116.859 219.341 117.649 218.303 117.649 217.023C117.649 215.743 116.859 214.705 115.885 214.705C114.91 214.705 114.12 215.743 114.12 217.023C114.12 218.303 114.91 219.341 115.885 219.341Z" fill="#3F3D56"/>
<path d="M115.885 216.51C116.859 216.51 117.649 215.472 117.649 214.192C117.649 212.912 116.859 211.874 115.885 211.874C114.91 211.874 114.12 212.912 114.12 214.192C114.12 215.472 114.91 216.51 115.885 216.51Z" fill="#3F3D56"/>
<path d="M122.493 189.152C122.735 188.844 122.955 188.52 123.153 188.182L118.512 187.439L123.531 187.476C124.013 186.427 124.276 185.289 124.303 184.134C124.331 182.979 124.122 181.831 123.691 180.759L116.959 184.259L123.168 179.685C122.587 178.677 121.805 177.799 120.87 177.107C119.936 176.415 118.869 175.923 117.737 175.662C116.605 175.401 115.431 175.377 114.289 175.591C113.146 175.805 112.06 176.253 111.099 176.906C110.137 177.559 109.319 178.403 108.697 179.387C108.075 180.371 107.662 181.472 107.484 182.623C107.305 183.774 107.365 184.949 107.66 186.075C107.955 187.202 108.478 188.255 109.197 189.17C108.822 189.65 108.499 190.168 108.233 190.716L114.257 193.855L107.833 191.693C107.539 192.569 107.388 193.488 107.388 194.412C107.384 196.314 108.021 198.162 109.197 199.655C108.214 200.905 107.602 202.408 107.431 203.991C107.261 205.574 107.538 207.173 108.232 208.606C108.925 210.038 110.007 211.246 111.353 212.091C112.7 212.936 114.256 213.384 115.845 213.384C117.434 213.384 118.99 212.936 120.337 212.091C121.683 211.246 122.765 210.038 123.459 208.606C124.152 207.173 124.429 205.574 124.259 203.991C124.088 202.408 123.476 200.905 122.493 199.655C123.668 198.161 124.306 196.314 124.306 194.412C124.306 192.511 123.668 190.664 122.493 189.17V189.152Z" fill="#27AE60"/>
<path opacity="0.1" d="M107.395 194.394C107.391 196.296 108.028 198.143 109.204 199.636C108.221 200.887 107.609 202.39 107.438 203.973C107.267 205.556 107.545 207.155 108.238 208.587C108.932 210.02 110.014 211.228 111.36 212.073C112.707 212.918 114.263 213.366 115.852 213.366C117.441 213.366 118.997 212.918 120.343 212.073C121.69 211.228 122.772 210.02 123.465 208.587C124.159 207.155 124.436 205.556 124.266 203.973C124.095 202.39 123.483 200.887 122.5 199.636C123.627 198.194 107.395 193.443 107.395 194.394Z" fill="black"/>
<path d="M307.038 229.9C313.163 229.9 318.129 228.943 318.129 227.763C318.129 226.583 313.163 225.627 307.038 225.627C300.913 225.627 295.947 226.583 295.947 227.763C295.947 228.943 300.913 229.9 307.038 229.9Z" fill="#1F7042"/>
<path d="M306.853 228.547C307.565 228.547 308.143 227.789 308.143 226.853C308.143 225.917 307.565 225.159 306.853 225.159C306.141 225.159 305.563 225.917 305.563 226.853C305.563 227.789 306.141 228.547 306.853 228.547Z" fill="#3F3D56"/>
<path d="M306.853 226.478C307.565 226.478 308.143 225.719 308.143 224.784C308.143 223.848 307.565 223.09 306.853 223.09C306.141 223.09 305.563 223.848 305.563 224.784C305.563 225.719 306.141 226.478 306.853 226.478Z" fill="#3F3D56"/>
<path d="M306.853 224.408C307.565 224.408 308.143 223.65 308.143 222.714C308.143 221.779 307.565 221.02 306.853 221.02C306.141 221.02 305.563 221.779 305.563 222.714C305.563 223.65 306.141 224.408 306.853 224.408Z" fill="#3F3D56"/>
<path d="M306.853 222.339C307.565 222.339 308.143 221.581 308.143 220.645C308.143 219.709 307.565 218.951 306.853 218.951C306.141 218.951 305.563 219.709 305.563 220.645C305.563 221.581 306.141 222.339 306.853 222.339Z" fill="#3F3D56"/>
<path d="M306.853 220.266C307.565 220.266 308.143 219.508 308.143 218.572C308.143 217.636 307.565 216.878 306.853 216.878C306.141 216.878 305.563 217.636 305.563 218.572C305.563 219.508 306.141 220.266 306.853 220.266Z" fill="#3F3D56"/>
<path d="M306.853 218.197C307.565 218.197 308.143 217.438 308.143 216.503C308.143 215.567 307.565 214.808 306.853 214.808C306.141 214.808 305.563 215.567 305.563 216.503C305.563 217.438 306.141 218.197 306.853 218.197Z" fill="#3F3D56"/>
<path d="M306.853 216.127C307.565 216.127 308.143 215.369 308.143 214.433C308.143 213.498 307.565 212.739 306.853 212.739C306.141 212.739 305.563 213.498 305.563 214.433C305.563 215.369 306.141 216.127 306.853 216.127Z" fill="#3F3D56"/>
<path d="M311.686 200.275C311.863 200.051 312.024 199.815 312.168 199.569L308.776 199.008L312.446 199.037C312.818 198.221 313.011 197.334 313.01 196.437C313.011 195.642 312.858 194.855 312.561 194.119L307.638 196.678L312.179 193.335C311.752 192.602 311.179 191.965 310.496 191.464C309.813 190.962 309.034 190.607 308.209 190.419C307.383 190.232 306.528 190.216 305.696 190.373C304.864 190.531 304.073 190.857 303.372 191.334C302.671 191.81 302.075 192.425 301.622 193.142C301.168 193.858 300.866 194.66 300.734 195.499C300.602 196.337 300.644 197.193 300.856 198.015C301.068 198.836 301.446 199.606 301.967 200.275C301.692 200.62 301.455 200.994 301.259 201.389L305.663 203.681L300.97 202.102C300.64 203.079 300.559 204.123 300.733 205.14C300.907 206.156 301.331 207.113 301.967 207.924C301.25 208.838 300.803 209.936 300.679 211.092C300.555 212.249 300.758 213.417 301.265 214.463C301.772 215.509 302.562 216.391 303.546 217.008C304.529 217.625 305.666 217.952 306.827 217.952C307.987 217.952 309.124 217.625 310.107 217.008C311.091 216.391 311.881 215.509 312.388 214.463C312.895 213.417 313.098 212.249 312.974 211.092C312.85 209.936 312.404 208.838 311.686 207.924C312.544 206.831 313.01 205.481 313.01 204.09C313.01 202.7 312.544 201.349 311.686 200.256V200.275Z" fill="#27AE60"/>
<path opacity="0.1" d="M300.644 204.098C300.641 205.489 301.108 206.84 301.967 207.932C301.25 208.846 300.804 209.944 300.68 211.1C300.555 212.256 300.758 213.424 301.265 214.47C301.772 215.516 302.563 216.399 303.546 217.016C304.53 217.633 305.667 217.96 306.827 217.96C307.987 217.96 309.124 217.633 310.108 217.016C311.091 216.399 311.882 215.516 312.389 214.47C312.896 213.424 313.099 212.256 312.975 211.1C312.85 209.944 312.404 208.846 311.687 207.932C312.517 206.877 300.644 203.403 300.644 204.098Z" fill="black"/>
<path d="M255.087 40.4807C258.213 40.4807 260.747 37.9407 260.747 34.8076C260.747 31.6744 258.213 29.1345 255.087 29.1345C251.961 29.1345 249.427 31.6744 249.427 34.8076C249.427 37.9407 251.961 40.4807 255.087 40.4807Z" fill="#E9F7EF"/>
<path d="M275.337 19.0218C280.578 19.0218 284.827 14.7636 284.827 9.51088C284.827 4.25817 280.578 0 275.337 0C270.097 0 265.848 4.25817 265.848 9.51088C265.848 14.7636 270.097 19.0218 275.337 19.0218Z" fill="#E9F7EF"/>
<path d="M262.779 65.1718C268.02 65.1718 272.268 60.9137 272.268 55.6609C272.268 50.4082 268.02 46.1501 262.779 46.1501C257.538 46.1501 253.289 50.4082 253.289 55.6609C253.289 60.9137 257.538 65.1718 262.779 65.1718Z" fill="#E9F7EF"/>
<path d="M438.761 100.295C441.887 100.295 444.421 97.7553 444.421 94.6221C444.421 91.489 441.887 88.949 438.761 88.949C435.635 88.949 433.101 91.489 433.101 94.6221C433.101 97.7553 435.635 100.295 438.761 100.295Z" fill="#E9F7EF"/>
<path d="M418.507 78.8363C423.748 78.8363 427.996 74.5781 427.996 69.3254C427.996 64.0727 423.748 59.8145 418.507 59.8145C413.266 59.8145 409.017 64.0727 409.017 69.3254C409.017 74.5781 413.266 78.8363 418.507 78.8363Z" fill="#E9F7EF"/>
<path d="M431.069 124.986C436.31 124.986 440.559 120.728 440.559 115.475C440.559 110.223 436.31 105.965 431.069 105.965C425.828 105.965 421.58 110.223 421.58 115.475C421.58 120.728 425.828 124.986 431.069 124.986Z" fill="#E9F7EF"/>
<path d="M118.802 108.112C120.572 108.112 122.008 106.673 122.008 104.898C122.008 103.124 120.572 101.685 118.802 101.685C117.031 101.685 115.595 103.124 115.595 104.898C115.595 106.673 117.031 108.112 118.802 108.112Z" fill="#E9F7EF"/>
<path d="M132.546 98.1218C135.515 98.1218 137.921 95.7099 137.921 92.7347C137.921 89.7596 135.515 87.3477 132.546 87.3477C129.578 87.3477 127.171 89.7596 127.171 92.7347C127.171 95.7099 129.578 98.1218 132.546 98.1218Z" fill="#E9F7EF"/>
<path d="M106.821 106.477C109.789 106.477 112.196 104.065 112.196 101.09C112.196 98.115 109.789 95.7032 106.821 95.7032C103.852 95.7032 101.446 98.115 101.446 101.09C101.446 104.065 103.852 106.477 106.821 106.477Z" fill="#E9F7EF"/>
<path d="M161.73 57.7972C169.151 57.7972 175.168 51.7675 175.168 44.3296C175.168 36.8917 169.151 30.8621 161.73 30.8621C154.309 30.8621 148.293 36.8917 148.293 44.3296C148.293 51.7675 154.309 57.7972 161.73 57.7972Z" fill="#E9F7EF"/>
<path d="M239.203 120.461C243.486 120.461 246.958 116.982 246.958 112.689C246.958 108.397 243.486 104.917 239.203 104.917C234.92 104.917 231.448 108.397 231.448 112.689C231.448 116.982 234.92 120.461 239.203 120.461Z" fill="#E9F7EF"/>
<path d="M296.288 157.613C300.571 157.613 304.043 154.133 304.043 149.841C304.043 145.549 300.571 142.069 296.288 142.069C292.006 142.069 288.534 145.549 288.534 149.841C288.534 154.133 292.006 157.613 296.288 157.613Z" fill="#E9F7EF"/>
<g clip-path="url(#clip0)">
<path fill-rule="evenodd" clip-rule="evenodd" d="M199.353 240.588L196.447 250.198L184.83 250.621L184.054 236.17L199.353 240.588Z" fill="#F77F89"/>
<path fill-rule="evenodd" clip-rule="evenodd" d="M184.321 248.958V261.586L215.732 262.3C215.732 262.3 214.839 253.276 198.777 253.128C198.837 249.163 198.843 248.958 198.843 248.958H184.321Z" fill="#1F7042"/>
<path fill-rule="evenodd" clip-rule="evenodd" d="M169.994 242.405L170.211 251.868L182.341 252.294L185.494 241.761L169.994 242.405Z" fill="#F77F89"/>
<path fill-rule="evenodd" clip-rule="evenodd" d="M188.34 17.7944C201.54 17.7944 204.272 30.4083 204.279 35.0409C204.279 39.4556 203.422 40.1294 203.452 44.6044C203.472 48.0035 204.452 50.3834 204.362 52.3142C203.842 62.3705 190.326 65.2701 186.467 65.3271C182.608 65.3841 165.806 62.1124 165.806 54.2953C165.806 48.8415 169.255 40.1193 169.161 34.0621C168.955 21.4817 179.412 17.7944 188.34 17.7944Z" fill="black"/>
<path fill-rule="evenodd" clip-rule="evenodd" d="M169.928 250.188L170.108 262.826L200.943 263.526C200.943 263.526 200.943 254.312 184.054 254.141V250.188H169.928Z" fill="#1F7042"/>
<path fill-rule="evenodd" clip-rule="evenodd" d="M166.902 155.398L166.982 243.803L189.016 243.32L189.349 239.227L203.559 241.155L212.577 148.972L207.708 125.366L175.526 124.482L166.902 155.398Z" fill="#3B4161"/>
<path fill-rule="evenodd" clip-rule="evenodd" d="M192.862 192.961L206.075 215.297L203.565 240.92L189.333 239.244L192.862 192.961Z" fill="#15192C"/>
<path fill-rule="evenodd" clip-rule="evenodd" d="M183.591 132.436H206.998L210.167 97.6513L205.938 70.9955L197.94 63.2488L189.922 59.6487L175.443 61.8744L183.591 132.436Z" fill="#F7D167"/>
<path d="M174.386 243.642L174.54 149.605" stroke="#737999" stroke-width="1.7" stroke-linecap="round" stroke-linejoin="round"/>
<path fill-rule="evenodd" clip-rule="evenodd" d="M179.568 59.2196C174.097 59.3704 157.758 65.3372 155.371 71.3911C153.559 75.9834 152.316 117.536 156.574 119.564C156.848 119.697 157.134 119.802 157.428 119.879C157.171 121.153 154.718 150.648 155.341 153.102C155.965 155.555 157.601 159.27 159.97 159.135C169.138 158.582 185.98 146.478 187.653 144.504C187.91 140.763 188.619 126.711 188.619 126.711L187.16 85.0173L178.805 62.0421C178.805 62.0421 185.04 59.0688 179.568 59.2196Z" fill="white"/>
<path fill-rule="evenodd" clip-rule="evenodd" d="M191.492 58.9581C200.9 60.1347 214.18 67.4724 215.889 70.8144C217.329 73.6235 216.599 109.99 216.599 109.99C216.599 109.99 211.267 117.348 213.67 127.931C215.876 137.692 216.529 150.869 214.216 153.333C210.404 151.392 205.502 143.612 204.619 141.695C203.736 139.777 203.506 128.93 202.826 126.61C202.146 124.29 199.104 83.2239 199.104 83.2239C199.104 83.2239 197.684 66.6344 191.492 58.9581Z" fill="white"/>
<path d="M167.808 62.451C172.544 71.1363 182.138 81.035 187.083 84.8128" stroke="#C9C9C9" stroke-width="2" stroke-linecap="round" stroke-linejoin="round"/>
<path d="M196.254 59.9537C200.47 65.6724 201.556 75.3901 198.254 85.2587" stroke="#C9C9C9" stroke-width="2" stroke-linecap="round" stroke-linejoin="round"/>
<path d="M172.594 86.7134C172.594 85.9668 172.814 85.2369 173.226 84.6161C173.639 83.9953 174.225 83.5116 174.911 83.226C175.597 82.9404 176.351 82.8659 177.079 83.0118C177.807 83.1577 178.476 83.5175 179.001 84.0457C179.525 84.5739 179.882 85.2467 180.027 85.9791C180.171 86.7115 180.096 87.4705 179.812 88.1602C179.527 88.8498 179.046 89.4391 178.428 89.8534C177.811 90.2677 177.085 90.4885 176.343 90.4879C175.348 90.487 174.395 90.0889 173.692 89.3812C172.989 88.6734 172.594 87.7139 172.594 86.7134V86.7134Z" stroke="#353823" stroke-width="3.41" stroke-linecap="round" stroke-linejoin="round"/>
<path fill-rule="evenodd" clip-rule="evenodd" d="M174.42 86.7134C174.42 86.3322 174.532 85.9595 174.743 85.6426C174.953 85.3256 175.253 85.0786 175.603 84.9327C175.953 84.7868 176.338 84.7486 176.71 84.823C177.082 84.8974 177.423 85.0809 177.691 85.3505C177.959 85.6201 178.141 85.9635 178.215 86.3374C178.289 86.7113 178.251 87.0988 178.106 87.451C177.961 87.8032 177.716 88.1043 177.401 88.316C177.086 88.5278 176.715 88.6409 176.336 88.6409C175.828 88.6409 175.341 88.4378 174.981 88.0763C174.622 87.7149 174.42 87.2246 174.42 86.7134Z" fill="#353823"/>
<path d="M175.33 83.0764C172.797 73.7207 172.634 60.7012 179.172 58.3547" stroke="#353823" stroke-width="3.41" stroke-linecap="round" stroke-linejoin="round"/>
<path d="M190.589 56.7625C194.318 58.3514 197.871 65.679 198.704 71.9542" stroke="#353823" stroke-width="3.41" stroke-linecap="round" stroke-linejoin="round"/>
<path d="M194.678 83.7401C193.485 77.941 195.284 72.6782 198.697 71.9542C202.109 71.2301 205.845 75.3666 207.028 81.1657C208.211 86.9649 206.421 92.2277 203.009 92.9484C199.597 93.6691 195.871 89.5292 194.678 83.7401Z" stroke="#353823" stroke-width="3.41" stroke-linecap="round" stroke-linejoin="round"/>
<path d="M171.471 74.6191L170.031 102.814" stroke="#C9C9C9" stroke-width="2" stroke-linecap="round" stroke-linejoin="round"/>
<path d="M167.418 75.4504L171.161 80.6998" stroke="#C9C9C9" stroke-width="2" stroke-linecap="round" stroke-linejoin="round"/>
<path fill-rule="evenodd" clip-rule="evenodd" d="M179.925 100.571L165.535 104.034L179.925 100.571Z" fill="#606060"/>
<path d="M179.925 100.571L165.535 104.034" stroke="#C9C9C9" stroke-width="2" stroke-linecap="round" stroke-linejoin="round"/>
<path d="M166.262 100.162L169.928 102.978" stroke="#C9C9C9" stroke-width="2" stroke-linecap="round" stroke-linejoin="round"/>
<path d="M180.472 116.899C174.42 119.349 160.044 122.279 157.328 119.852C153.695 116.604 152.662 83.0798 154.485 74.1867C155.548 69.011 160.917 65.6791 163.716 64.3382" stroke="#C9C9C9" stroke-width="2" stroke-linecap="round" stroke-linejoin="round"/>
<path d="M176.146 118.334C174.42 116.131 173.76 105.15 174.593 101.855" stroke="#C9C9C9" stroke-width="2" stroke-linecap="round" stroke-linejoin="round"/>
<path fill-rule="evenodd" clip-rule="evenodd" d="M176.336 104C176.336 103.825 176.387 103.654 176.483 103.508C176.579 103.362 176.716 103.248 176.877 103.18C177.038 103.113 177.215 103.095 177.386 103.129C177.556 103.162 177.713 103.246 177.837 103.37C177.96 103.494 178.044 103.651 178.079 103.823C178.113 103.995 178.096 104.173 178.029 104.335C177.963 104.497 177.85 104.635 177.705 104.732C177.56 104.83 177.39 104.882 177.216 104.882C177.101 104.882 176.986 104.86 176.88 104.816C176.773 104.772 176.676 104.707 176.594 104.625C176.512 104.543 176.447 104.446 176.403 104.338C176.359 104.231 176.336 104.116 176.336 104Z" fill="#C9C9C9"/>
<path d="M174.733 130.918C172.82 131.661 170.786 132.042 168.735 132.04C167.213 132.026 165.7 131.8 164.239 131.37C164.13 131.795 164.07 132.232 164.063 132.671V139.673C164.063 141.14 164.642 142.547 165.673 143.584C166.704 144.621 168.103 145.204 169.561 145.204C171.02 145.204 172.418 144.621 173.449 143.584C174.481 142.547 175.06 141.14 175.06 139.673V132.664C175.046 132.068 174.936 131.478 174.733 130.918Z" stroke="#C9C9C9" stroke-width="2" stroke-linecap="round" stroke-linejoin="round"/>
<path fill-rule="evenodd" clip-rule="evenodd" d="M196.061 81.6585H224.797C226.54 81.6585 227.579 83.0295 227.13 84.719L216.036 125.769C215.765 126.632 215.235 127.39 214.519 127.938C213.803 128.486 212.936 128.797 212.037 128.829H183.318C181.578 128.829 180.535 127.458 180.985 125.769L192.075 84.719C192.345 83.8577 192.872 83.1013 193.586 82.5534C194.3 82.0055 195.164 81.6929 196.061 81.6585Z" fill="#1F7042"/>
<path fill-rule="evenodd" clip-rule="evenodd" d="M203.992 79.5467H220.301C220.483 79.5315 220.665 79.5627 220.83 79.6373C220.996 79.7119 221.141 79.8276 221.25 79.9735C221.36 80.1194 221.43 80.2908 221.456 80.4717C221.482 80.6526 221.462 80.8372 221.398 81.0082L220.605 83.7971C220.47 84.2094 220.214 84.5704 219.869 84.8316C219.525 85.0929 219.11 85.2419 218.679 85.2586H202.369C202.189 85.2729 202.007 85.2411 201.842 85.1662C201.676 85.0913 201.532 84.9757 201.423 84.8301C201.314 84.6844 201.243 84.5135 201.217 84.3329C201.19 84.1524 201.21 83.9681 201.273 83.7971L202.066 81.0082C202.201 80.5964 202.458 80.236 202.802 79.9748C203.147 79.7137 203.562 79.5643 203.992 79.5467Z" fill="#3B4161"/>
<path fill-rule="evenodd" clip-rule="evenodd" d="M179.842 102.582C181.112 101.843 182.462 101.251 183.864 100.816C185.887 99.1397 187.373 92.5193 187.91 92.1003C188.446 91.6812 190.242 91.9528 190.296 92.5796C190.529 94.8758 190.406 97.5575 188.383 99.9542C194.268 96.1898 194.715 94.5205 196.334 95.7809C197.954 97.0412 198.537 103.189 197.147 105.73C193.322 112.742 183.258 113.691 180.178 113.738C179.412 110.403 179.412 106.37 179.842 102.582Z" fill="#F77F89"/>
<path d="M166.979 236.904L189.733 236.17" stroke="#737999" stroke-width="1.7" stroke-linecap="round" stroke-linejoin="round"/>
<path d="M196.311 147.403L189.359 239.23" stroke="#737999" stroke-width="1.7" stroke-linecap="round" stroke-linejoin="round"/>
<path d="M189.923 231.853L204.292 233.549" stroke="#737999" stroke-width="1.7" stroke-linecap="round" stroke-linejoin="round"/>
<path d="M208.114 194.591C207.235 194.679 206.347 194.571 205.514 194.272C204.682 193.974 203.925 193.494 203.299 192.866C202.673 192.238 202.194 191.479 201.895 190.642C201.596 189.805 201.485 188.912 201.571 188.027C201.657 187.143 201.937 186.288 202.39 185.525C202.844 184.762 203.461 184.11 204.195 183.615C204.93 183.121 205.764 182.796 206.638 182.665C207.513 182.535 208.405 182.6 209.251 182.858" stroke="#737999" stroke-width="1.7" stroke-linecap="round" stroke-linejoin="round"/>
<path d="M192.472 198.704C190.757 198.609 189.146 197.844 187.983 196.573C186.82 195.302 186.195 193.624 186.242 191.897C186.29 190.17 187.005 188.53 188.236 187.325C189.468 186.12 191.118 185.446 192.835 185.446C193.057 185.446 193.267 185.456 193.465 185.476" stroke="#737999" stroke-width="1.7" stroke-linecap="round" stroke-linejoin="round"/>
<path d="M197.37 97.6044L192.222 101.751" stroke="#A7464F" stroke-width="3.41" stroke-linecap="round" stroke-linejoin="round"/>
<path d="M197.92 101.895L191.382 107.124" stroke="#A7464F" stroke-width="3.41" stroke-linecap="round" stroke-linejoin="round"/>
<path fill-rule="evenodd" clip-rule="evenodd" d="M226.633 101.697C226.553 100.316 226.966 97.2491 228.186 94.3227C228.632 93.2634 228.659 91.5204 227.089 91.5204C225.303 91.5204 222.914 95.1272 224.09 99.4213C225.267 103.715 226.75 103.648 226.633 101.697Z" fill="#F77F89"/>
<path fill-rule="evenodd" clip-rule="evenodd" d="M221.101 93.582C222.521 93.582 226.836 102.17 226.806 103.213C226.776 104.255 226.326 105.841 225.656 105.76C224.987 105.68 219.381 98.5028 219.381 96.0659C219.381 94.6546 220.065 93.582 221.101 93.582Z" fill="#F77F89"/>
<path fill-rule="evenodd" clip-rule="evenodd" d="M219.248 98.5161C221.018 98.5161 225.683 105.361 225.716 106.145C225.75 106.93 224.807 107.651 224.027 107.684C223.247 107.718 217.672 103.119 217.672 100.98C217.662 99.6726 218.248 98.5161 219.248 98.5161Z" fill="#F77F89"/>
<path fill-rule="evenodd" clip-rule="evenodd" d="M220.881 111.318C221.647 111.281 223.78 109.364 223.78 107.855C223.78 107.262 222.291 105.727 221.544 105.773C220.798 105.82 219.275 108.707 219.305 109.441C219.335 110.175 219.878 111.355 220.881 111.318Z" fill="#F77F89"/>
<path d="M223.78 96.7563C225.31 99.3173 226.823 102.596 226.806 103.212" stroke="#A7464F" stroke-width="3.41" stroke-linecap="round" stroke-linejoin="round"/>
<path d="M220.318 99.019C222.424 100.615 225.68 105.492 225.706 106.146" stroke="#A94B53" stroke-width="3.41" stroke-linecap="round" stroke-linejoin="round"/>
<path fill-rule="evenodd" clip-rule="evenodd" d="M174.28 37.4008C174.28 29.7278 180.382 23.4929 187.923 23.4929C195.464 23.4929 201.553 29.7144 201.553 37.3874C201.553 45.0603 195.438 51.2952 187.923 51.2952C180.408 51.2952 174.28 45.0771 174.28 37.4008Z" fill="#F77F89"/>
<path fill-rule="evenodd" clip-rule="evenodd" d="M185.903 38.403C186.05 37.5181 186.57 36.8644 187.09 36.9516C187.609 37.0387 187.896 37.8231 187.756 38.7081C187.616 39.593 187.09 40.2467 186.57 40.1629C186.05 40.0791 185.76 39.2913 185.903 38.403Z" fill="#B5545C"/>
<path fill-rule="evenodd" clip-rule="evenodd" d="M196.171 39.0668C196.308 38.2388 196.801 37.6287 197.277 37.7092C197.754 37.7896 198.03 38.5237 197.897 39.3517C197.764 40.1797 197.264 40.7864 196.787 40.6925C196.311 40.5987 196.034 39.8948 196.171 39.0668Z" fill="#B5545C"/>
<path fill-rule="evenodd" clip-rule="evenodd" d="M176.363 43.5184C177.173 45.7844 179.209 57.5603 178.695 61.8376C180.828 65.0891 190.332 64.184 193.165 61.432C191.755 57.4732 191.702 54.6339 192.219 51.2952C192.708 48.1711 175.553 41.2591 176.363 43.5184Z" fill="#F77F89"/>
<path fill-rule="evenodd" clip-rule="evenodd" d="M193.318 23.1577C193.435 26.4595 190.439 29.6139 182.294 31.1793C183.188 33.4956 183.261 36.9784 178.812 37.6053C173.623 38.3293 173.2 31.662 173.2 31.662L180.971 22.427C180.971 22.427 193.205 19.8492 193.318 23.1577Z" fill="black"/>
<path fill-rule="evenodd" clip-rule="evenodd" d="M190.872 20.8347C190.539 23.7678 193.895 30.891 201.666 31.0854C207.191 31.0854 191.195 17.8983 190.872 20.8347Z" fill="black"/>
<path fill-rule="evenodd" clip-rule="evenodd" d="M181.858 50.8025C181.112 49.8538 182.191 45.5296 183.368 43.5485C184.787 42.7072 189.823 43.4077 192.419 41.1618C193.182 40.4914 193.592 40.9875 194.185 41.7216C195.228 43.0088 198.364 43.6759 199.537 44.4033C199.71 46.2805 197.997 50.5779 197.257 51.5399C196.098 53.0651 185.497 53.2026 181.858 50.8025Z" fill="white"/>
<path d="M184.054 43.9407C183.367 42.7876 180.368 37.6288 179.412 36.3214" stroke="white" stroke-width="3.41" stroke-linecap="round" stroke-linejoin="round"/>
<path d="M182.448 50.5276C180.418 50.5276 175.593 44.1418 175.043 41.9998" stroke="white" stroke-width="3.41" stroke-linecap="round" stroke-linejoin="round"/>
<path fill-rule="evenodd" clip-rule="evenodd" d="M171.947 38.5405C171.947 37.6567 172.208 36.7928 172.696 36.058C173.184 35.3232 173.878 34.7505 174.689 34.4123C175.501 34.0741 176.394 33.9856 177.256 34.158C178.118 34.3304 178.909 34.756 179.53 35.3809C180.152 36.0058 180.575 36.802 180.746 37.6688C180.917 38.5355 180.829 39.434 180.493 40.2505C180.157 41.0669 179.588 41.7648 178.857 42.2558C178.127 42.7468 177.268 43.0088 176.389 43.0088C175.211 43.0088 174.081 42.5381 173.248 41.7001C172.415 40.8621 171.947 39.7256 171.947 38.5405Z" fill="#F77F89"/>
<path d="M200.017 260.539L170.071 260.332" stroke="#7DCEA0" stroke-width="1.7" stroke-linecap="round" stroke-linejoin="round"/>
<path d="M200.656 262.018C199.833 259.4 196.614 254.271 184.054 254.147V252.877" stroke="#7DCEA0" stroke-width="1.7" stroke-linecap="round" stroke-linejoin="round"/>
<path d="M170.071 256.859C170.815 256.859 171.552 257.006 172.239 257.293C172.927 257.579 173.551 257.999 174.077 258.528C174.603 259.057 175.021 259.686 175.305 260.377C175.59 261.068 175.736 261.809 175.736 262.558C175.736 262.708 175.736 262.856 175.736 263.003" stroke="#7DCEA0" stroke-width="1.7" stroke-linecap="round" stroke-linejoin="round"/>
<path d="M187.373 257.04L188.843 254.479" stroke="#7DCEA0" stroke-width="1.7" stroke-linecap="round" stroke-linejoin="round"/>
<path d="M190.832 257.643L192.085 255.129" stroke="#7DCEA0" stroke-width="1.7" stroke-linecap="round" stroke-linejoin="round"/>
<path d="M194.105 258.304L195.194 256.269" stroke="#7DCEA0" stroke-width="1.7" stroke-linecap="round" stroke-linejoin="round"/>
<path d="M188.153 135.667L203.716 135.178" stroke="#737999" stroke-width="1.7" stroke-linecap="round" stroke-linejoin="round"/>
<path d="M169.951 251.813L184.054 251.583" stroke="#7DCEA0" stroke-width="1.7" stroke-linecap="round" stroke-linejoin="round"/>
<path d="M184.321 250.429L198.823 250.312" stroke="#7DCEA0" stroke-width="1.7" stroke-linecap="round" stroke-linejoin="round"/>
<path d="M214.98 260.091L199.51 259.755" stroke="#7DCEA0" stroke-width="1.7" stroke-linecap="round" stroke-linejoin="round"/>
<path d="M203.476 253.467L202.143 255.85" stroke="#7DCEA0" stroke-width="1.7" stroke-linecap="round" stroke-linejoin="round"/>
<path d="M205.698 254L204.365 256.387" stroke="#7DCEA0" stroke-width="1.7" stroke-linecap="round" stroke-linejoin="round"/>
<path d="M208.071 254.657L206.738 257.043" stroke="#7DCEA0" stroke-width="1.7" stroke-linecap="round" stroke-linejoin="round"/>
<path d="M164.093 158.314C159.094 160.419 155.342 156.668 155.312 152.951C155.282 149.233 156.745 127.053 156.945 124.84" stroke="#C9C9C9" stroke-width="2" stroke-linecap="round" stroke-linejoin="round"/>
<path d="M216.522 76.1208C216.782 68.5317 208.838 65.0589 205.569 63.5706" stroke="#C9C9C9" stroke-width="2" stroke-linecap="round" stroke-linejoin="round"/>
<path d="M214.969 151.878C215.592 147.832 215.636 136.884 214.583 132.708" stroke="#C9C9C9" stroke-width="2" stroke-linecap="round" stroke-linejoin="round"/>
</g>
<defs>
<linearGradient id="paint0_linear" x1="336.853" y1="250.578" x2="336.853" y2="14.2923" gradientUnits="userSpaceOnUse">
<stop stop-color="#808080" stop-opacity="0.25"/>
<stop offset="0.54" stop-color="#808080" stop-opacity="0.12"/>
<stop offset="1" stop-color="#808080" stop-opacity="0.1"/>
</linearGradient>
<clipPath id="clip0">
<rect x="153.265" y="17.7944" width="75.187" height="245.732" fill="white"/>
</clipPath>
</defs>
</svg>
