<svg width="231" height="55" viewBox="0 0 231 55" fill="none" xmlns="http://www.w3.org/2000/svg">
<g clip-path="url(#clip0)">
<path d="M46.3711 19.5104L46.3594 8.01809L35.0831 8.03282L27.2091 0L19.3496 7.92969L7.95663 7.94147L7.97121 19.4269L0 27.4705L8.09855 35.4994L8.10925 46.9849L19.3856 46.9731L27.2596 55L35.1152 46.9564L46.5082 46.9475L46.4965 35.579L54.4677 27.5354L46.3711 19.5104ZM6.95343 29.877L5.12685 28.0412C5.05902 27.9737 5.00514 27.8933 4.96836 27.8046C4.93159 27.7159 4.91265 27.6207 4.91265 27.5245C4.91265 27.4284 4.93159 27.3332 4.96836 27.2445C5.00514 27.1558 5.05902 27.0753 5.12685 27.0079L7.06327 25.0532C7.11812 25.0021 7.18789 24.9704 7.2621 24.9627C7.33632 24.9551 7.41097 24.9719 7.47491 25.0107C7.53885 25.0496 7.58863 25.1083 7.61676 25.1781C7.6449 25.2479 7.64988 25.3251 7.63097 25.398L7.74665 29.5333C7.74665 29.9939 7.29171 30.1069 6.95439 29.877H6.95343ZM39.6325 11.3607H42.2572C42.5984 11.3607 43.0494 11.5866 42.9376 12.0482V14.7985C42.9376 15.1413 42.4846 15.2612 42.366 15.0264L39.4002 12.0443C39.3333 11.9979 39.2833 11.9307 39.2576 11.853C39.2319 11.7753 39.232 11.6912 39.2578 11.6135C39.2836 11.5358 39.3338 11.4687 39.4007 11.4224C39.4676 11.3761 39.5476 11.353 39.6286 11.3567L39.6325 11.3607ZM25.0393 7.12326L26.8649 5.28448C27.2062 5.05562 27.6601 4.94168 27.8856 5.28448L29.8221 7.12031C29.8744 7.18243 29.9076 7.25871 29.9176 7.3397C29.9275 7.42069 29.9137 7.50283 29.8779 7.57599C29.8421 7.64914 29.7859 7.7101 29.7162 7.75132C29.6465 7.79253 29.5664 7.81219 29.4857 7.80788L25.3864 7.81379C25.3038 7.82357 25.2201 7.80756 25.1468 7.76791C25.0735 7.72826 25.0139 7.66687 24.9761 7.59199C24.9383 7.51712 24.9241 7.43236 24.9354 7.34908C24.9467 7.26581 24.983 7.18803 25.0393 7.1262V7.12326ZM11.15 14.717V12.1917C11.2627 11.729 11.4941 11.3872 11.949 11.3872L14.5669 11.3813C14.6497 11.3708 14.7337 11.3865 14.8074 11.4261C14.8812 11.4656 14.941 11.5273 14.9787 11.6025C15.0165 11.6777 15.0303 11.7629 15.0184 11.8463C15.0065 11.9298 14.9693 12.0075 14.912 12.0689L11.949 15.0539C11.879 15.1071 11.7965 15.1407 11.7096 15.1515C11.6227 15.1623 11.5345 15.1499 11.4538 15.1155C11.3732 15.0811 11.3028 15.0259 11.2499 14.9555C11.1969 14.8851 11.1631 14.8018 11.1519 14.7141L11.15 14.717ZM14.8265 43.7641H12.2018C12.1115 43.7677 12.0214 43.7523 11.9372 43.719C11.8531 43.6858 11.7766 43.6352 11.7127 43.5707C11.6488 43.5061 11.5988 43.4289 11.5659 43.3438C11.5329 43.2588 11.5178 43.1677 11.5213 43.0765L11.4056 40.4323C11.3965 40.349 11.4128 40.2649 11.4524 40.1912C11.492 40.1176 11.5531 40.0581 11.6272 40.0206C11.7014 39.9832 11.7852 39.9696 11.8672 39.9817C11.9493 39.9938 12.0257 40.0311 12.0861 40.0885L15.1618 43.0735C15.3913 43.3014 15.1618 43.7611 14.8226 43.7611L14.8265 43.7641ZM29.5304 47.7638L27.7068 49.6055C27.6465 49.6857 27.5686 49.7507 27.4793 49.7954C27.3901 49.8402 27.2917 49.8635 27.192 49.8635C27.0924 49.8635 26.994 49.8402 26.9048 49.7954C26.8155 49.7507 26.7376 49.6857 26.6773 49.6055L24.7428 47.7667C24.6943 47.7117 24.661 47.6447 24.6464 47.5724C24.6318 47.5002 24.6364 47.4254 24.6597 47.3555C24.683 47.2857 24.7242 47.2233 24.7791 47.1748C24.834 47.1262 24.9007 47.0932 24.9723 47.0792H29.1824C29.2653 47.0686 29.3494 47.084 29.4233 47.1234C29.4972 47.1629 29.5572 47.2243 29.5952 47.2995C29.6333 47.3747 29.6475 47.4599 29.6359 47.5435C29.6243 47.6271 29.5875 47.705 29.5304 47.7667V47.7638ZM31.5718 43.1727L22.4555 43.1816C21.8613 43.2609 21.257 43.1872 20.6985 42.9674C20.1401 42.7476 19.6457 42.3888 19.2612 41.9243L12.6509 35.2696C12.1499 34.8366 11.7627 34.285 11.5239 33.6641C11.2851 33.0431 11.202 32.3721 11.2822 31.7109L11.2734 22.6339C11.2619 22.042 11.3664 21.4536 11.5809 20.9027C11.7955 20.3517 12.1158 19.8492 12.5236 19.424L19.4721 12.4087C19.8502 12.0475 20.2979 11.769 20.7873 11.5905C21.2767 11.412 21.7973 11.3375 22.3165 11.3715L31.6593 11.3656C32.2258 11.2791 32.8047 11.3385 33.3424 11.5384C33.8801 11.7383 34.3591 12.0721 34.7351 12.5089L41.4717 19.2796C41.9132 19.6602 42.2646 20.136 42.5002 20.6719C42.7357 21.2079 42.8493 21.7904 42.8326 22.3766L42.8443 32.2531C42.9238 32.8301 42.8379 33.418 42.5966 33.9471C42.3554 34.4762 41.969 34.9242 41.4834 35.2381L35.1083 41.7907C34.6639 42.2788 34.114 42.6567 33.5015 42.8952C32.889 43.1337 32.2304 43.2263 31.5767 43.1659L31.5718 43.1727ZM43.0844 42.6964C42.9687 43.0411 42.7432 43.4998 42.2892 43.4998L39.6646 43.5057C39.5814 43.5153 39.4972 43.4989 39.4236 43.4586C39.3499 43.4184 39.2902 43.3562 39.2526 43.2806C39.215 43.205 39.2012 43.1196 39.2132 43.0358C39.2252 42.9521 39.2622 42.874 39.3195 42.8122L42.2824 39.8243C42.3363 39.7522 42.4104 39.6982 42.4951 39.6695C42.5799 39.6407 42.6712 39.6385 42.7572 39.6631C42.8432 39.6878 42.9198 39.7381 42.977 39.8075C43.0342 39.877 43.0692 39.9622 43.0776 40.0521L43.0844 42.6964ZM47.177 29.8289C46.9485 30.0568 46.4965 29.8348 46.6034 29.601V25.3528C46.4907 24.8931 47.0613 24.7762 47.2897 25.0041L49.1163 26.8439C49.3389 27.1847 49.4546 27.6444 49.1163 27.8723L47.177 29.8289Z" fill="#D9B77F"/>
<path d="M39.094 34.2176L27.5659 13.8978C27.108 13.0944 26.4217 13.0944 25.8559 13.8978L14.7089 34.1204C14.4804 34.697 14.7089 35.3835 15.7374 35.3835L38.1831 35.36C38.9812 35.36 39.4391 35.0191 39.0969 34.2176H39.094ZM36.0212 32.9515L19.6082 32.9662C19.4816 32.9831 19.3528 32.9639 19.2364 32.9109C19.1199 32.8578 19.0205 32.773 18.9491 32.6659C18.8778 32.5588 18.8375 32.4338 18.8327 32.3048C18.8279 32.1758 18.8588 32.048 18.922 31.9359L27.1138 17.2286C27.458 16.655 28.0237 16.766 28.3776 17.2286L36.6978 32.0311C36.9233 32.6047 36.585 32.9486 36.0173 32.9486" fill="#D9B77F"/>
<path d="M34.8743 30.6559L28.821 19.753C28.7732 19.6744 28.7062 19.6094 28.6265 19.5644C28.5467 19.5194 28.4569 19.4957 28.3656 19.4957C28.2742 19.4957 28.1844 19.5194 28.1047 19.5644C28.025 19.6094 27.958 19.6744 27.9101 19.753L21.8783 30.5469C21.8438 30.6293 21.8287 30.7187 21.8341 30.8079C21.8395 30.8972 21.8653 30.9841 21.9094 31.0616C21.9536 31.1391 22.0149 31.2053 22.0886 31.2549C22.1623 31.3045 22.2464 31.3361 22.3342 31.3474L34.4135 31.3396C34.8694 31.2197 35.094 31.1078 34.8694 30.652L34.8743 30.6559ZM32.2448 28.6983L25.9776 28.7072C25.7462 28.7072 25.6383 28.5903 25.7462 28.3614L28.8171 22.851C29.0465 22.6221 29.1593 22.6221 29.275 22.851L32.4693 28.3516C32.5859 28.5824 32.4693 28.6963 32.2438 28.6963" fill="#D9B77F"/>
<path d="M208.748 18.6588L208.757 25.3194C208.184 21.7627 205.901 18.6647 201.346 18.6676L193.137 18.6765L193.148 30.9595L184.948 30.9683V29.1315H190.986V24.8813H184.945V23.1624L192.235 23.1506L192.23 18.6775L179.236 18.6893L179.242 23.1654C178.553 20.1865 176.387 18.6964 172.744 18.6951L163.74 18.706L163.749 29.9576C158.627 32.0282 155.323 31.3465 155.204 27.3262C155.204 23.1929 158.158 22.1537 162.831 23.5249L162.372 18.9348C156.674 17.7915 152.235 18.9466 149.619 23.5396C149.16 21.1341 147.79 18.8346 143.683 18.7266L134.568 18.7354L134.586 30.9153H126.377V29.1954L132.415 29.1895V24.9393L126.374 24.9472V23.1094L133.664 23.1035L133.654 18.7325L99.2414 18.7668L99.2502 27.9538L94.7999 18.7698L88.3004 18.7786L88.3121 30.9516L79.7673 30.9575L79.7615 29.2386L85.806 29.2298L85.8002 25.0945L79.7615 25.1004V23.2636L86.9395 23.2528V18.8965L74.0621 18.9083L74.0737 30.046C69.4077 32.0036 65.6437 31.6657 65.6388 27.1837C65.6388 23.3903 69.1647 22.2479 73.3845 23.7331L72.8139 19.0252C65.1781 17.4231 59.9346 20.417 59.8306 27.5373C59.8364 33.5104 66.2192 37.1771 74.0786 34.8698V35.3295L93.4516 35.3148L93.4428 26.7005L97.7833 35.305H104.502L104.491 23.0072H109.847L109.859 35.2932L115.789 35.2873L115.777 23.1074H120.679L120.691 35.2765L140.061 35.2617L140.046 23.0897H141.873C142.896 23.0897 143.696 23.4325 143.698 24.5837C143.586 25.9589 142.445 26.3036 140.51 25.9589L143.135 35.2598L149.285 35.2509L146.66 28.3634C147.249 28.2216 147.794 27.9385 148.251 27.5382C148.708 27.1379 149.063 26.6322 149.285 26.064C149.294 35.4808 157.387 36.6261 163.769 34.6645V35.2362H169.355L169.343 23.0642H171.166C172.527 23.0642 172.874 23.8647 172.88 24.5552C172.998 25.7035 171.633 26.2801 169.69 25.9304L172.432 35.2313L178.243 35.2254L175.73 28.3389C176.529 28.207 177.278 27.8603 177.899 27.335C178.52 26.8098 178.989 26.1255 179.258 25.3538L179.267 35.2254L202.403 35.2018C205.592 35.2018 207.979 32.9004 208.775 29.1119L208.781 35.2018L214.71 35.1959L214.702 23.0239L220.513 23.018L220.522 35.191L226.451 35.1851L226.44 23.0141L231 23.0082L230.994 18.646L208.748 18.6588ZM200.582 30.8436H198.755V23.3785H200.808C201.943 23.3785 202.632 24.6436 202.632 27.057C202.748 29.6934 201.951 30.8426 200.591 30.8426" fill="#327449"/>
<path d="M0.000386786 18.5624L0.000236113 22.6161L6.87998 28.3452L8.93773 26.8126L0.000386786 18.5624Z" fill="#4D565F"/>
<path d="M43.7285 45.6016C32.9317 50.9066 21.6107 50.6912 9.82687 45.6016C13.2557 38.6882 8.1303 33.2736 5.49902 26.2946L49.499 24.75C46.1342 30.8128 41.1693 37.9759 43.7285 45.6016Z" fill="#4D565F"/>
<path d="M53.6239 27.4999L41.2505 41.9376L43.3114 45.3749L54.9989 28.8749L53.6239 27.4999Z" fill="#4D565F"/>
<path d="M1.07176 28.6233L-1.375 30.2501L10.3117 45.375L12.3742 43.3125L1.07176 28.6233Z" fill="#4D565F"/>
<path d="M46.062 30.25V24.75L48.1245 23.375L56.3745 15.8125L55.687 18.5625L48.812 25.4375L46.062 30.25Z" fill="#4D565F"/>
</g>
<defs>
<clipPath id="clip0">
<rect width="231" height="55" fill="white"/>
</clipPath>
</defs>
</svg>
