<svg width="32" height="32" viewBox="0 0 32 32" fill="none" xmlns="http://www.w3.org/2000/svg">
<circle cx="16" cy="16" r="16" fill="white"/>
<path d="M19.3333 8.83334H13.3333C12.7365 8.83334 12.1642 9.0704 11.7423 9.49235C11.3203 9.91431 11.0833 10.4866 11.0833 11.0833V21.5833C11.0833 22.1801 11.3203 22.7524 11.7423 23.1743C12.1642 23.5963 12.7365 23.8333 13.3333 23.8333H19.3333C19.93 23.8333 20.5023 23.5963 20.9242 23.1743C21.3462 22.7524 21.5833 22.1801 21.5833 21.5833V11.0833C21.5833 10.4866 21.3462 9.91431 20.9242 9.49235C20.5023 9.0704 19.93 8.83334 19.3333 8.83334ZM20.0833 21.5833C20.0833 21.7823 20.0042 21.973 19.8636 22.1137C19.7229 22.2543 19.5322 22.3333 19.3333 22.3333H13.3333C13.1343 22.3333 12.9436 22.2543 12.8029 22.1137C12.6623 21.973 12.5833 21.7823 12.5833 21.5833V20.8333H20.0833V21.5833ZM20.0833 19.3333H12.5833V11.0833C12.5833 10.8844 12.6623 10.6937 12.8029 10.553C12.9436 10.4124 13.1343 10.3333 13.3333 10.3333H19.3333C19.5322 10.3333 19.7229 10.4124 19.8636 10.553C20.0042 10.6937 20.0833 10.8844 20.0833 11.0833V19.3333Z" fill="black"/>
</svg>
