<svg width="433" height="40" viewBox="0 0 433 40" fill="none" xmlns="http://www.w3.org/2000/svg">
<path fill-rule="evenodd" clip-rule="evenodd" d="M43.5714 13.8534C42.1189 14.0342 41.4554 14.7303 41.4385 15.3812C41.4165 16.3134 42.5586 16.9929 43.9377 17.8134C45.7316 18.8808 47.9265 20.1867 48.4812 22.5976C48.4619 26.3764 45.0045 28.8263 39.7352 28.8263C37.4817 28.8037 35.3127 28.363 34.1401 27.859L35.0473 23.87L35.1732 23.9245C36.3251 24.4233 37.7741 25.0508 40.2153 25.0181C41.6581 24.9955 43.2094 24.4599 43.2191 23.2372C43.2312 22.4348 42.5725 21.8653 40.6134 20.9771C38.7122 20.1047 36.1861 18.6379 36.2126 16.0208C36.244 12.477 39.7376 10 44.7077 10C46.6403 10 48.2037 10.3978 49.4101 10.8114L48.5295 14.6648C46.276 13.6997 44.2928 13.7653 43.5714 13.8534ZM55.0202 11.4582C55.3776 10.6204 56.1829 10.0828 57.136 10.0828H61.3749L65.3779 28.8261H60.7745L60.1788 26.0265H53.824L52.7899 28.8261H47.5741L55.0202 11.4582ZM57.8888 15.1468L55.2512 22.1866H59.3733L57.8888 15.1468ZM29.8186 10.3368L25.6664 28.5393H30.692L34.8395 10.3368H29.8186ZM17.4511 22.8406L22.4233 10.0828H27.4482L19.7078 28.8261H14.6554L10.8414 13.8669C10.6143 12.9453 10.4125 12.6079 9.71073 12.2169C8.56171 11.5862 6.66504 10.9974 5 10.6251L5.11009 10.0828H13.238C14.277 10.0828 15.2081 10.7833 15.4397 11.9935L17.4511 22.8406Z" fill="#1A1F71"/>
<path fill-rule="evenodd" clip-rule="evenodd" d="M152.197 35.75C160.481 35.75 167.197 28.5866 167.197 19.75C167.197 10.9134 160.481 3.75 152.197 3.75C143.913 3.75 137.197 10.9134 137.197 19.75C137.197 28.5866 143.913 35.75 152.197 35.75Z" fill="#F99F1B"/>
<path fill-rule="evenodd" clip-rule="evenodd" d="M132.652 35.75C141.019 35.75 147.803 28.5866 147.803 19.75C147.803 10.9134 141.019 3.75 132.652 3.75C124.284 3.75 117.5 10.9134 117.5 19.75C117.5 28.5866 124.284 35.75 132.652 35.75Z" fill="#E72223"/>
<path fill-rule="evenodd" clip-rule="evenodd" d="M142.5 7.59064C139.254 10.5252 137.197 14.8839 137.197 19.75C137.197 24.6161 139.254 28.9748 142.5 31.9093C145.746 28.9748 147.803 24.6161 147.803 19.75C147.803 14.8839 145.746 10.5252 142.5 7.59064Z" fill="#EF6C21"/>
<path fill-rule="evenodd" clip-rule="evenodd" d="M237.307 21.3176L232.719 33.6968L232.23 31.1817C231.087 28.0973 228.613 24.8617 225.733 23.5503L229.93 39.4462L234.892 39.4438L242.27 21.3176H237.307Z" fill="#1C548E"/>
<path fill-rule="evenodd" clip-rule="evenodd" d="M241.24 39.4641L244.173 21.3002H248.86L245.925 39.4641H241.24Z" fill="#1C548E"/>
<path fill-rule="evenodd" clip-rule="evenodd" d="M262.93 21.748C262.004 21.3817 260.543 20.9836 258.73 20.9836C254.093 20.9836 250.835 23.4497 250.807 26.9769C250.777 29.5894 253.136 31.0468 254.91 31.9147C256.74 32.8029 257.351 33.373 257.345 34.1677C257.328 35.3846 255.881 35.9393 254.537 35.9393C252.663 35.9393 251.664 35.6656 250.128 34.9899L249.52 34.7003L248.864 38.7653C249.96 39.2714 251.985 39.7099 254.089 39.7326C259.01 39.7326 262.212 37.2945 262.25 33.5297C262.27 31.4574 261.017 29.8887 258.31 28.5938C256.676 27.7518 255.666 27.1938 255.681 26.3403C255.682 25.5865 256.528 24.7788 258.367 24.7788C259.902 24.7533 261.006 25.1056 261.875 25.4771L262.293 25.6853L262.93 21.748Z" fill="#1C548E"/>
<path fill-rule="evenodd" clip-rule="evenodd" d="M274.953 21.319H271.331C270.209 21.319 269.367 21.639 268.871 22.8265L261.913 39.4699H266.836C266.836 39.4699 267.641 37.2299 267.823 36.7388C268.36 36.7388 273.142 36.7499 273.824 36.7499C273.969 37.3831 274.395 39.4699 274.395 39.4699H278.748L274.953 21.319ZM269.172 33.0236C269.561 31.9812 271.039 27.9465 271.039 27.9465C271.011 27.9957 271.424 26.8959 271.663 26.2159L271.975 27.7817C271.975 27.7817 272.876 32.1161 273.063 33.0236C272.334 33.0236 270.086 33.0236 269.172 33.0236Z" fill="#1C548E"/>
<path fill-rule="evenodd" clip-rule="evenodd" d="M228.463 21.3085H220.903L220.859 21.6212C226.737 23.1253 230.615 26.8188 232.23 31.1865L230.587 22.8386C230.305 21.6902 229.482 21.349 228.463 21.3085Z" fill="#E79F3F"/>
<path fill-rule="evenodd" clip-rule="evenodd" d="M206.723 16.919H203.734L200.286 1.36771L203.589 0.814941L205.949 12.9855L211.958 0.975905H215.131L206.723 16.919Z" fill="#1C548E"/>
<path fill-rule="evenodd" clip-rule="evenodd" d="M222.268 11.8352H215.14C214.945 13.9976 215.949 14.9412 217.651 14.9412C219.077 14.9412 220.331 14.4116 221.681 13.5605L221.67 15.7229C220.346 16.5513 218.817 17.0805 217.023 17.0805C213.919 17.0805 211.869 15.3089 212.485 11.3055C213.04 7.69397 215.538 5.50891 218.435 5.50891C221.769 5.50891 222.878 8.01638 222.394 11.1682C222.358 11.3981 222.292 11.6742 222.268 11.8352ZM218.073 7.41831C216.969 7.41831 215.938 8.29204 215.451 10.1099H219.866C219.947 8.38409 219.406 7.41831 218.073 7.41831Z" fill="#1C548E"/>
<path fill-rule="evenodd" clip-rule="evenodd" d="M226.914 10.4781L225.934 16.8506H223.175L224.884 5.73831H227.23L227.231 7.97012C228.165 6.68192 229.435 5.60096 231.174 5.50891L231.189 8.24626C229.447 8.36144 227.88 9.28144 226.914 10.4781Z" fill="#1C548E"/>
<path fill-rule="evenodd" clip-rule="evenodd" d="M231.153 16.8506L232.863 5.73833H235.622L233.913 16.8506H231.153ZM234.552 3.8752C233.633 3.8752 232.996 3.23086 233.137 2.31086C233.282 1.36773 234.121 0.700256 235.04 0.700256C235.937 0.700256 236.57 1.36773 236.425 2.31086C236.284 3.23086 235.449 3.8752 234.552 3.8752Z" fill="#1C548E"/>
<path fill-rule="evenodd" clip-rule="evenodd" d="M243.264 2.70172C242.32 2.70172 241.751 3.1157 241.599 4.10558L241.348 5.73835H243.463L243.461 7.99281H241.001L239.638 16.8506H236.902L238.265 7.99281H236.655L237.002 5.73835H238.611L238.905 3.82895C239.284 1.36775 240.989 0.447266 243.265 0.447266C243.748 0.447266 244.109 0.493531 244.378 0.539314L244.399 2.79377C244.13 2.74799 243.723 2.70172 243.264 2.70172Z" fill="#1C548E"/>
<path fill-rule="evenodd" clip-rule="evenodd" d="M243.293 16.8506L245.003 5.73833H247.762L246.053 16.8506H243.293ZM246.692 3.8752C245.773 3.8752 245.136 3.23086 245.277 2.31086C245.422 1.36773 246.261 0.700256 247.181 0.700256C248.077 0.700256 248.711 1.36773 248.566 2.31086C248.424 3.23086 247.589 3.8752 246.692 3.8752Z" fill="#1C548E"/>
<path fill-rule="evenodd" clip-rule="evenodd" d="M258.46 11.8352H251.332C251.137 13.9976 252.141 14.9412 253.843 14.9412C255.269 14.9412 256.523 14.4116 257.873 13.5605L257.862 15.7229C256.539 16.5513 255.008 17.0805 253.215 17.0805C250.111 17.0805 248.061 15.3089 248.677 11.3055C249.233 7.69397 251.73 5.50891 254.627 5.50891C257.961 5.50891 259.07 8.01638 258.586 11.1682C258.55 11.3981 258.485 11.6742 258.46 11.8352ZM254.265 7.41831C253.161 7.41831 252.129 8.29204 251.643 10.1099H256.058C256.139 8.38409 255.598 7.41831 254.265 7.41831Z" fill="#1C548E"/>
<path fill-rule="evenodd" clip-rule="evenodd" d="M266.633 16.8506L266.64 15.3089C265.713 16.2525 264.505 17.0805 262.964 17.0805C260.641 17.0805 259.045 15.3552 259.622 11.6048C260.259 7.46409 262.818 5.62361 265.393 5.62361C266.451 5.62361 267.274 5.80771 267.905 6.03759L268.73 0.677105L271.556 0.240479L269.001 16.8506H266.633ZM267.555 8.31518C266.915 7.99277 266.411 7.8318 265.468 7.8318C264.019 7.8318 262.781 9.0053 262.406 11.4443C262.074 13.6063 262.837 14.6188 264.056 14.6188C265.068 14.6188 265.941 14.0212 266.818 13.1007L267.555 8.31518Z" fill="#1C548E"/>
<path fill-rule="evenodd" clip-rule="evenodd" d="M277.454 16.9552C276.148 16.9552 275.083 16.7455 274.092 16.3976L275.907 4.6L278.047 4.26843L277.262 9.37446C277.888 8.81687 278.757 8.25928 279.82 8.25928C281.596 8.25928 282.786 9.5841 282.352 12.4067C281.875 15.5084 279.962 16.9552 277.454 16.9552ZM278.996 10.106C278.299 10.106 277.599 10.5769 276.98 11.2048L276.393 15.0207C276.805 15.1773 277.09 15.2472 277.682 15.2472C279.006 15.2472 279.931 14.4458 280.225 12.5287C280.475 10.908 279.936 10.106 278.996 10.106Z" fill="#1C548E"/>
<path fill-rule="evenodd" clip-rule="evenodd" d="M287.276 17.3036C286.208 19.3773 285.151 20.0221 283.531 20.0221C283.165 20.0221 282.962 19.9869 282.778 19.9349L282.765 18.2096C283.033 18.2795 283.321 18.3315 283.721 18.3315C284.331 18.3315 284.862 18.053 285.217 17.4429L285.494 16.8853L283.722 8.59032L285.942 8.31177L286.971 14.306L289.755 8.4337H291.828L287.276 17.3036Z" fill="#1C548E"/>
<path fill-rule="evenodd" clip-rule="evenodd" d="M426.926 15.6881C426.926 14.4693 427.876 13.4756 429.014 13.4756C430.185 13.4756 431.102 14.4693 431.102 15.6881C431.102 16.9062 430.185 17.9 429.014 17.9C427.876 17.9318 426.926 16.9381 426.926 15.6881ZM429.014 17.4187C429.9 17.4187 430.596 16.6493 430.596 15.72C430.596 14.79 429.869 14.0206 429.014 14.0206C428.128 14.0206 427.433 14.79 427.433 15.72C427.433 16.6493 428.128 17.4187 429.014 17.4187ZM428.73 16.6818H428.287V14.7262H429.077C429.236 14.7262 429.425 14.7262 429.552 14.8218C429.71 14.9181 429.774 15.1106 429.774 15.3031C429.774 15.5275 429.647 15.72 429.457 15.7837L429.805 16.6493H429.33L429.046 15.88H428.73V16.6818ZM428.73 15.5918H428.982C429.077 15.5918 429.172 15.5918 429.236 15.56C429.299 15.5275 429.33 15.4312 429.33 15.335C429.33 15.2712 429.299 15.175 429.236 15.1431C429.172 15.1106 429.046 15.1106 428.982 15.1106H428.761L428.73 15.5918Z" fill="#FD0C15"/>
<path fill-rule="evenodd" clip-rule="evenodd" d="M397.034 0.908135L396.464 4.69126C395.23 4.01814 394.313 3.76126 393.332 3.76126C390.739 3.76126 388.903 6.45439 388.903 10.27C388.903 12.8988 390.137 14.5019 392.162 14.5019C393.016 14.5019 393.965 14.2131 395.135 13.6038L394.534 17.5794C393.237 17.9644 392.415 18.0925 391.434 18.0925C387.67 18.0925 385.329 15.2069 385.329 10.59C385.329 4.37063 388.556 0.0100098 393.206 0.0100098C393.807 0.0100098 394.344 0.0743848 394.788 0.20251L396.242 0.58751C396.622 0.74751 396.717 0.78001 397.034 0.908135Z" fill="#FD0C15"/>
<path fill-rule="evenodd" clip-rule="evenodd" d="M385.424 3.50502C385.329 3.47314 385.203 3.47314 385.076 3.47314C383.937 3.47314 383.273 4.08189 382.198 5.78127L382.514 3.63314H379.351L377.2 17.7719H380.711C381.976 9.11564 382.292 7.64064 383.969 7.64064C384.064 7.64064 384.095 7.64064 384.222 7.64064C384.538 5.94189 384.949 4.69127 385.551 3.53689L385.424 3.50502Z" fill="#FD0C15"/>
<path fill-rule="evenodd" clip-rule="evenodd" d="M364.515 17.5794C363.566 17.9 362.807 18.0606 362.016 18.0606C360.244 18.0606 359.264 16.97 359.264 14.9506C359.264 14.5656 359.295 14.1169 359.358 13.6681L359.58 12.2894L359.738 11.1675L361.256 1.51752H364.736L364.325 3.60127H366.128L365.622 7.03189L363.85 7.03127L362.933 12.9306C362.902 13.1869 362.87 13.3794 362.87 13.5075C362.87 14.245 363.249 14.5656 364.072 14.5656C364.483 14.5656 364.768 14.5338 365.021 14.4375L364.515 17.5794Z" fill="#FD0C15"/>
<path fill-rule="evenodd" clip-rule="evenodd" d="M350.722 8.08938C350.722 9.885 351.545 11.1031 353.38 12.0331C354.772 12.7381 355.025 12.9625 355.025 13.6038C355.025 14.4694 354.392 14.8862 353.032 14.8862C351.988 14.8862 351.039 14.7262 349.9 14.3094L349.426 17.5794L349.584 17.6112L350.217 17.74C350.438 17.7719 350.722 17.8356 351.134 17.8681C351.956 17.9319 352.621 17.9963 353.063 17.9963C356.733 17.9963 358.441 16.4894 358.441 13.2831C358.441 11.3594 357.745 10.2056 355.973 9.34C354.519 8.63438 354.36 8.47438 354.36 7.80063C354.36 7.03125 354.93 6.64688 356.068 6.64688C356.765 6.64688 357.682 6.74312 358.568 6.87125L359.074 3.60125C358.156 3.44062 356.796 3.3125 356.005 3.3125C352.051 3.3125 350.691 5.46063 350.722 8.08938Z" fill="#FD0C15"/>
<path fill-rule="evenodd" clip-rule="evenodd" d="M424.902 17.74H421.581L421.738 16.3613C420.789 17.4513 419.777 17.9319 418.512 17.9319C415.95 17.9319 414.273 15.5919 414.273 12.065C414.273 7.35188 416.867 3.37688 419.967 3.37688C421.328 3.37688 422.34 3.98563 423.32 5.3L424.079 0.330627H427.528L424.902 17.74ZM419.746 14.4375C421.391 14.4375 422.53 12.4819 422.53 9.66063C422.53 7.865 421.865 6.87125 420.663 6.87125C419.081 6.87125 417.943 8.85938 417.943 11.6163C417.943 13.4756 418.543 14.4375 419.746 14.4375Z" fill="#FD0C15"/>
<path fill-rule="evenodd" clip-rule="evenodd" d="M375.586 17.4512C374.384 17.8356 373.246 18.0281 371.98 18.0281C368.089 18.0281 366.033 15.8481 366.033 11.6806C366.033 6.80747 368.627 3.24872 372.138 3.24872C375.017 3.24872 376.852 5.26809 376.852 8.40997C376.852 9.43622 376.725 10.4618 376.408 11.905H369.449C369.418 12.1293 369.418 12.2256 369.418 12.3537C369.418 14.0206 370.462 14.8543 372.486 14.8543C373.72 14.8543 374.859 14.5656 376.124 13.9568L375.586 17.4512ZM373.625 9.01934C373.656 8.73059 373.656 8.47434 373.656 8.31372C373.656 7.15997 373.056 6.48622 372.012 6.48622C370.905 6.48622 370.114 7.38434 369.797 9.01934H373.625Z" fill="#FD0C15"/>
<path fill-rule="evenodd" clip-rule="evenodd" d="M336.678 17.74H333.198L335.191 4.37066L330.699 17.74H328.326L328.042 4.46691L325.923 17.74H322.664L325.385 0.363159H330.414L330.541 11.1357L333.957 0.363159H339.398L336.678 17.74Z" fill="#FD0C15"/>
<path fill-rule="evenodd" clip-rule="evenodd" d="M345.693 11.4556C345.314 11.4237 345.155 11.3918 344.902 11.3918C342.909 11.3918 341.929 12.1293 341.929 13.54C341.929 14.4056 342.435 14.9825 343.194 14.9825C344.586 14.9825 345.63 13.54 345.693 11.4556ZM348.224 17.74H345.314L345.377 16.265C344.491 17.4512 343.321 17.9643 341.707 17.9643C339.809 17.9643 338.512 16.3931 338.512 14.1168C338.512 10.6543 340.79 8.66683 344.649 8.66683C345.06 8.66683 345.567 8.6987 346.073 8.76308C346.168 8.28183 346.199 8.08933 346.199 7.83308C346.199 6.90308 345.598 6.55058 343.953 6.55058C342.973 6.55058 341.834 6.7112 341.043 6.96745L340.6 7.12745L340.284 7.2237L340.758 4.04995C342.498 3.50495 343.668 3.28058 344.934 3.28058C347.939 3.28058 349.521 4.72308 349.521 7.4162C349.521 8.12183 349.457 8.63433 349.236 10.2375L348.54 15.2712L348.414 16.1687L348.319 16.8743L348.255 17.3868L348.224 17.74Z" fill="#FD0C15"/>
<path fill-rule="evenodd" clip-rule="evenodd" d="M403.075 11.4556C402.727 11.4237 402.537 11.3918 402.284 11.3918C400.291 11.3918 399.279 12.1293 399.279 13.54C399.279 14.4056 399.786 14.9825 400.545 14.9825C401.968 14.9825 403.012 13.54 403.075 11.4556ZM405.606 17.74H402.696L402.759 16.265C401.873 17.4512 400.703 17.9643 399.089 17.9643C397.191 17.9643 395.895 16.3931 395.895 14.1168C395.895 10.6543 398.173 8.66684 402.032 8.66684C402.411 8.66684 402.949 8.69872 403.455 8.76309C403.55 8.28184 403.581 8.08934 403.581 7.83309C403.581 6.90309 402.98 6.55059 401.335 6.55059C400.355 6.55059 399.216 6.71122 398.425 6.96747L397.919 7.09559L397.603 7.19184L398.078 4.01809C399.817 3.47309 400.988 3.24872 402.253 3.24872C405.258 3.24872 406.84 4.69122 406.84 7.38434C406.84 8.08934 406.776 8.60247 406.555 10.2056L405.827 15.2068L405.732 16.1043L405.637 16.81L405.574 17.2912L405.606 17.74Z" fill="#FD0C15"/>
<path fill-rule="evenodd" clip-rule="evenodd" d="M415.381 3.50502C415.286 3.47314 415.159 3.47314 415.033 3.47314C413.894 3.47314 413.23 4.08189 412.154 5.78127L412.47 3.63314H409.307L407.156 17.7719H410.667C411.932 9.11564 412.249 7.64064 413.925 7.64064C414.02 7.64064 414.02 7.64064 414.179 7.64064C414.494 5.94189 414.938 4.69127 415.507 3.53689L415.381 3.50502Z" fill="#FD0C15"/>
<path fill-rule="evenodd" clip-rule="evenodd" d="M400.703 31.4937C400.703 34.7 399.722 36.5912 398.173 36.5912C397.034 36.6231 396.369 35.3406 396.369 33.4493C396.369 31.205 397.381 28.6406 398.963 28.6406C400.26 28.6406 400.703 30.0187 400.703 31.4937ZM404.151 31.5256C404.151 27.9668 402.411 25.1781 399.152 25.1781C395.388 25.1781 392.953 28.5443 392.953 33.5137C392.953 37.0719 394.408 39.99 397.951 39.99C401.525 39.99 404.151 37.425 404.151 31.5256Z" fill="#F3AE12"/>
<path fill-rule="evenodd" clip-rule="evenodd" d="M394.06 22.7088L393.522 26.4925C392.352 25.8188 391.529 25.5625 390.612 25.5625C388.176 25.5625 386.468 28.2557 386.468 32.0707C386.468 34.6994 387.607 36.3025 389.505 36.3025C390.327 36.3025 391.213 36.0144 392.288 35.405L391.719 39.3807C390.517 39.765 389.726 39.8932 388.808 39.8932C385.298 39.8932 383.083 37.0082 383.083 32.3913C383.083 26.1713 386.12 21.8113 390.454 21.8113C391.023 21.8113 391.498 21.8757 391.909 22.0038L393.237 22.3888C393.68 22.5169 393.775 22.5488 394.06 22.7088Z" fill="#F3AE12"/>
<path fill-rule="evenodd" clip-rule="evenodd" d="M372.454 25.2738C372.359 25.2419 372.233 25.2419 372.107 25.2419C371.031 25.2419 370.43 25.8513 369.418 27.55L369.734 25.4019H366.792L364.799 39.5406H368.058C369.228 30.8844 369.544 29.41 371.094 29.41C371.189 29.41 371.189 29.41 371.348 29.4419C371.632 27.7425 372.043 26.4925 372.581 25.3381L372.454 25.2738Z" fill="#F3AE12"/>
<path fill-rule="evenodd" clip-rule="evenodd" d="M415.096 39.4125H411.996L412.154 38.0338C411.268 39.1238 410.319 39.605 409.117 39.605C406.745 39.605 405.163 37.2644 405.163 33.7381C405.163 29.025 407.599 25.0494 410.477 25.0494C411.742 25.0494 412.723 25.6588 413.609 27.005L414.337 22.0356H417.563L415.096 39.4125ZM410.256 36.0781C411.806 36.0781 412.85 34.1225 412.85 31.3013C412.85 29.5063 412.249 28.5444 411.11 28.5444C409.623 28.5444 408.579 30.5 408.579 33.2888C408.579 35.1488 409.149 36.0781 410.256 36.0781Z" fill="#F3AE12"/>
<path fill-rule="evenodd" clip-rule="evenodd" d="M341.834 39.3481C340.727 39.7331 339.651 39.9256 338.481 39.9256C334.843 39.9256 332.945 37.7456 332.945 33.5775C332.945 28.7363 335.381 25.1456 338.639 25.1456C341.328 25.1456 343.036 27.1331 343.036 30.3075C343.036 31.3338 342.909 32.3594 342.624 33.8019H336.14C336.108 34.0263 336.108 34.1225 336.108 34.2506C336.108 35.8856 337.089 36.7194 338.987 36.7194C340.157 36.7194 341.201 36.4313 342.372 35.8219L341.834 39.3481ZM339.999 30.9163C339.999 30.6281 340.031 30.3719 340.031 30.2113C340.031 29.0569 339.462 28.3838 338.481 28.3838C337.437 28.3838 336.709 29.2813 336.393 30.9163H339.999Z" fill="#F3AE12"/>
<path fill-rule="evenodd" clip-rule="evenodd" d="M380.679 39.3481C379.572 39.7331 378.497 39.9256 377.326 39.9256C373.656 39.9256 371.759 37.7456 371.759 33.5775C371.759 28.7363 374.194 25.1456 377.453 25.1456C380.141 25.1456 381.881 27.1331 381.881 30.3075C381.881 31.3338 381.755 32.3594 381.47 33.8019H374.985C374.953 34.0263 374.953 34.1225 374.953 34.2506C374.953 35.8856 375.934 36.7194 377.832 36.7194C379.003 36.7194 380.047 36.4313 381.217 35.8219L380.679 39.3481ZM378.844 30.9163C378.876 30.6281 378.876 30.3719 378.876 30.2113C378.876 29.0569 378.307 28.3838 377.326 28.3838C376.282 28.3838 375.554 29.2813 375.238 30.9163H378.844Z" fill="#F3AE12"/>
<path fill-rule="evenodd" clip-rule="evenodd" d="M426.231 39.3481C425.092 39.7331 424.016 39.9256 422.877 39.9256C419.24 39.9256 417.31 37.7456 417.31 33.5775C417.31 28.7363 419.746 25.1456 423.036 25.1456C425.725 25.1456 427.433 27.1331 427.433 30.3075C427.433 31.3338 427.306 32.3594 427.021 33.8019H420.537C420.505 34.0263 420.505 34.1225 420.505 34.2506C420.505 35.8856 421.486 36.7194 423.384 36.7194C424.554 36.7194 425.598 36.4313 426.769 35.8219L426.231 39.3481ZM424.396 30.9163C424.396 30.6281 424.428 30.3719 424.428 30.2113C424.428 29.0569 423.858 28.3838 422.877 28.3838C421.833 28.3838 421.106 29.2813 420.789 30.9163H424.396Z" fill="#F3AE12"/>
<path fill-rule="evenodd" clip-rule="evenodd" d="M332.154 25.915C331.521 25.4663 330.636 25.1138 329.434 25.1138C328.105 25.1138 327.061 25.4019 327.061 26.8125C327.061 29.3138 331.87 28.3838 331.87 33.77C331.87 38.675 328.706 39.9575 325.828 39.9575C324.562 39.9575 323.075 39.5406 322 39.0275L322.791 35.4369C323.455 36.0463 324.752 36.4631 325.859 36.4631C326.903 36.4631 328.485 36.1744 328.485 34.3469C328.485 31.4938 323.677 32.5519 323.677 27.55C323.677 22.9656 326.492 21.6188 329.213 21.6188C330.731 21.6188 332.186 21.8431 333.008 22.4206L332.154 25.915Z" fill="#F3AE12"/>
<path fill-rule="evenodd" clip-rule="evenodd" d="M351.387 39.3481C350.722 39.6688 349.806 39.8938 348.477 39.8938C345.63 39.8938 343.858 37.0081 343.858 33.4813C343.858 28.8644 346.421 25.21 350.185 25.21C351.007 25.21 352.273 25.5625 353.253 26.1394L352.526 29.5063C351.83 29.025 351.102 28.7363 350.343 28.7363C348.603 28.7363 347.338 30.3719 347.338 33.2569C347.338 34.9244 348.255 36.3025 349.679 36.3025C350.533 36.3025 351.134 36.1106 351.861 35.6938L351.387 39.3481Z" fill="#F3AE12"/>
<path fill-rule="evenodd" clip-rule="evenodd" d="M363.597 35.7894C363.439 37.0081 363.281 38.1944 363.186 39.4444H360.054L360.307 37.1681H360.276C359.295 38.7075 358.283 39.765 356.48 39.765C354.519 39.765 353.443 37.6494 353.443 34.9244C353.443 33.9625 353.506 33.4494 353.696 31.9744L354.582 25.4344H358.093L357.144 32.0063C357.049 32.7119 356.923 33.4175 356.923 34.1544C356.923 34.9881 357.302 35.8219 358.251 35.7575C359.675 35.7575 360.529 33.9944 360.782 31.9106L361.763 25.4344H365.148L363.597 35.7894Z" fill="#F3AE12"/>
<path fill-rule="evenodd" clip-rule="evenodd" d="M429.489 39.2843H428.951V36.9437H428.192V36.4312H430.248V36.9437H429.489V39.2843Z" fill="#F3AE12"/>
<path fill-rule="evenodd" clip-rule="evenodd" d="M433 39.2843H432.494V36.9118L432.02 39.2843H431.513L431.039 36.9118V39.2843H430.533V36.4312H431.323L431.767 38.675H431.798L432.241 36.4312H433V39.2843Z" fill="#F3AE12"/>
</svg>
